<svg xmlns="http://www.w3.org/2000/svg" width="425" height="504" viewBox="0 0 425 504" fill="none"><g clip-path="url(#clip0_9_1848)"><mask id="mask0_9_1848" style="mask-type:luminance" maskUnits="userSpaceOnUse" x="287" y="313" width="134" height="77"><path d="M420.27 368.55C365.57 357.57 356.94 395.55 322.26 388.58C287.57 381.61 287.86 343.18 287.86 343.18C287.86 343.18 302.51 307.63 337.19 314.6C371.88 321.57 365.57 357.57 420.27 368.55Z" fill="white"></path></mask><g mask="url(#mask0_9_1848)"><path d="M412.57 395.54L420.27 368.55V395.54H412.57Z" fill="#EB2127"></path><path d="M411.77 395.54L420.27 365.73V368.55L412.57 395.54H411.77Z" fill="#EB2127"></path><path d="M410.96 395.54L420.27 362.92V365.73L411.77 395.54H410.96Z" fill="#EB2127"></path><path d="M410.16 395.54L420.27 360.11V362.92L410.96 395.54H410.16Z" fill="#EB2127"></path><path d="M409.36 395.54L420.27 357.3V360.11L410.16 395.54H409.36Z" fill="#EB2127"></path><path d="M408.56 395.54L420.27 354.48V357.3L409.36 395.54H408.56Z" fill="#EB2127"></path><path d="M407.75 395.54L420.27 351.67V354.48L408.56 395.54H407.75Z" fill="#EB2127"></path><path d="M406.95 395.54L420.27 348.86V351.67L407.75 395.54H406.95Z" fill="#EB2227"></path><path d="M406.15 395.54L420.27 346.05V348.86L406.95 395.54H406.15Z" fill="#EB2227"></path><path d="M405.35 395.54L420.27 343.23V346.05L406.15 395.54H405.35Z" fill="#EB2227"></path><path d="M404.54 395.54L420.27 340.42V343.23L405.35 395.54H404.54Z" fill="#EB2227"></path><path d="M403.74 395.54L420.27 337.61V340.42L404.54 395.54H403.74Z" fill="#EB2227"></path><path d="M402.94 395.54L420.22 334.99L420.27 335.01V337.61L403.74 395.54H402.94Z" fill="#EB2427"></path><path d="M402.14 395.54L419.47 334.78L420.22 334.99L402.94 395.54H402.14Z" fill="#EB2427"></path><path d="M401.33 395.54L418.73 334.57L419.47 334.78L402.14 395.54H401.33Z" fill="#EB2427"></path><path d="M400.53 395.54L417.99 334.36L418.73 334.57L401.33 395.54H400.53Z" fill="#EB2427"></path><path d="M399.73 395.54L417.25 334.15L417.99 334.36L400.53 395.54H399.73Z" fill="#EB2427"></path><path d="M398.92 395.54L416.5 333.93L417.25 334.15L399.73 395.54H398.92Z" fill="#EB2427"></path><path d="M398.12 395.54L415.76 333.72L416.5 333.93L398.92 395.54H398.12Z" fill="#EB2627"></path><path d="M397.32 395.54L415.02 333.51L415.76 333.72L398.12 395.54H397.32Z" fill="#EB2627"></path><path d="M396.52 395.54L414.28 333.3L415.02 333.51L397.32 395.54H396.52Z" fill="#EB2627"></path><path d="M395.71 395.54L413.54 333.09L414.28 333.3L396.52 395.54H395.71Z" fill="#EC2527"></path><path d="M394.91 395.54L412.79 332.88L413.54 333.09L395.71 395.54H394.91Z" fill="#EC2527"></path><path d="M394.11 395.54L412.05 332.66L412.79 332.88L394.91 395.54H394.11Z" fill="#EC2527"></path><path d="M393.31 395.54L411.31 332.45L412.05 332.66L394.11 395.54H393.31Z" fill="#EC2727"></path><path d="M392.5 395.54L410.57 332.24L411.31 332.45L393.31 395.54H392.5Z" fill="#EC2727"></path><path d="M391.7 395.54L409.83 332.03L410.57 332.24L392.5 395.54H391.7Z" fill="#EC2727"></path><path d="M390.9 395.54L409.08 331.82L409.83 332.03L391.7 395.54H390.9Z" fill="#EC2727"></path><path d="M390.1 395.54L408.34 331.6L409.08 331.82L390.9 395.54H390.1Z" fill="#ED2926"></path><path d="M389.29 395.54L407.6 331.39L408.34 331.6L390.1 395.54H389.29Z" fill="#ED2926"></path><path d="M388.49 395.54L406.86 331.18L407.6 331.39L389.29 395.54H388.49Z" fill="#ED2A26"></path><path d="M387.69 395.54L406.11 330.97L406.86 331.18L388.49 395.54H387.69Z" fill="#ED2A26"></path><path d="M386.89 395.54L405.37 330.76L406.11 330.97L387.69 395.54H386.89Z" fill="#EC2C27"></path><path d="M386.08 395.54L404.63 330.55L405.37 330.76L386.89 395.54H386.08Z" fill="#EC2C27"></path><path d="M385.28 395.54L403.89 330.33L404.63 330.55L386.08 395.54H385.28Z" fill="#EC2C27"></path><path d="M384.48 395.54L403.15 330.12L403.89 330.33L385.28 395.54H384.48Z" fill="#EC2C27"></path><path d="M383.68 395.54L402.4 329.91L403.15 330.12L384.48 395.54H383.68Z" fill="#EC2D26"></path><path d="M382.87 395.54L401.66 329.7L402.4 329.91L383.68 395.54H382.87Z" fill="#EC2D26"></path><path d="M382.07 395.54L400.92 329.49L401.66 329.7L382.87 395.54H382.07Z" fill="#EC2D26"></path><path d="M381.27 395.54L400.18 329.28L400.92 329.49L382.07 395.54H381.27Z" fill="#ED2F26"></path><path d="M380.47 395.54L399.43 329.06L400.18 329.28L381.27 395.54H380.47Z" fill="#EE2F26"></path><path d="M379.66 395.54L398.69 328.85L399.43 329.06L380.47 395.54H379.66Z" fill="#EE2F26"></path><path d="M378.86 395.54L397.95 328.64L398.69 328.85L379.66 395.54H378.86Z" fill="#EE2F26"></path><path d="M378.06 395.54L397.21 328.43L397.95 328.64L378.86 395.54H378.06Z" fill="#EE3026"></path><path d="M377.25 395.54L396.47 328.22L397.21 328.43L378.06 395.54H377.25Z" fill="#EE3026"></path><path d="M376.45 395.54L395.72 328L396.47 328.22L377.25 395.54H376.45Z" fill="#EE3026"></path><path d="M375.65 395.54L394.98 327.79L395.72 328L376.45 395.54H375.65Z" fill="#EE3226"></path><path d="M374.85 395.54L394.24 327.58L394.98 327.79L375.65 395.54H374.85Z" fill="#EE3326"></path><path d="M374.04 395.54L393.5 327.37L394.24 327.58L374.85 395.54H374.04Z" fill="#EE3326"></path><path d="M373.24 395.54L392.76 327.16L393.5 327.37L374.04 395.54H373.24Z" fill="#EE3326"></path><path d="M372.44 395.54L392.01 326.95L392.76 327.16L373.24 395.54H372.44Z" fill="#EE3425"></path><path d="M371.64 395.54L391.27 326.73L392.01 326.95L372.44 395.54H371.64Z" fill="#EE3625"></path><path d="M370.83 395.54L390.53 326.52L391.27 326.73L371.64 395.54H370.83Z" fill="#EE3626"></path><path d="M370.03 395.54L389.79 326.31L390.53 326.52L370.83 395.54H370.03Z" fill="#EE3726"></path><path d="M369.23 395.54L389.04 326.1L389.79 326.31L370.03 395.54H369.23Z" fill="#EF3826"></path><path d="M368.43 395.54L388.3 325.89L389.04 326.1L369.23 395.54H368.43Z" fill="#EF3926"></path><path d="M367.62 395.54L387.56 325.68L388.3 325.89L368.43 395.54H367.62Z" fill="#EF3926"></path><path d="M366.82 395.54L386.82 325.46L387.56 325.68L367.62 395.54H366.82Z" fill="#EF3926"></path><path d="M366.02 395.54L386.08 325.25L386.82 325.46L366.82 395.54H366.02Z" fill="#EF3B26"></path><path d="M365.22 395.54L385.33 325.04L386.08 325.25L366.02 395.54H365.22Z" fill="#EF3C26"></path><path d="M364.41 395.54L384.59 324.83L385.33 325.04L365.22 395.54H364.41Z" fill="#EF3D26"></path><path d="M363.61 395.54L383.85 324.62L384.59 324.83L364.41 395.54H363.61Z" fill="#EF3D26"></path><path d="M362.81 395.54L383.11 324.4L383.85 324.62L363.61 395.54H362.81Z" fill="#EF3D25"></path><path d="M362.01 395.54L382.36 324.19L383.11 324.4L362.81 395.54H362.01Z" fill="#EF3E25"></path><path d="M361.2 395.54L381.62 323.98L382.36 324.19L362.01 395.54H361.2Z" fill="#EF3F25"></path><path d="M360.4 395.54L380.88 323.77L381.62 323.98L361.2 395.54H360.4Z" fill="#EF3F25"></path><path d="M359.6 395.54L380.14 323.56L380.88 323.77L360.4 395.54H359.6Z" fill="#EF4025"></path><path d="M358.8 395.54L379.4 323.35L380.14 323.56L359.6 395.54H358.8Z" fill="#EF4025"></path><path d="M357.99 395.54L378.65 323.13L379.4 323.35L358.8 395.54H357.99Z" fill="#EF4025"></path><path d="M357.19 395.54L377.91 322.92L378.65 323.13L357.99 395.54H357.19Z" fill="#EF4125"></path><path d="M356.39 395.54L377.17 322.71L377.91 322.92L357.19 395.54H356.39Z" fill="#EF4225"></path><path d="M355.58 395.54L376.43 322.5L377.17 322.71L356.39 395.54H355.58Z" fill="#EF4325"></path><path d="M354.78 395.54L375.69 322.29L376.43 322.5L355.58 395.54H354.78Z" fill="#EF4524"></path><path d="M353.98 395.54L374.94 322.07L375.69 322.29L354.78 395.54H353.98Z" fill="#EF4624"></path><path d="M353.18 395.54L374.2 321.86L374.94 322.07L353.98 395.54H353.18Z" fill="#EF4824"></path><path d="M352.37 395.54L373.46 321.65L374.2 321.86L353.18 395.54H352.37Z" fill="#F04925"></path><path d="M351.57 395.54L372.72 321.44L373.46 321.65L352.37 395.54H351.57Z" fill="#F04A25"></path><path d="M350.77 395.54L371.97 321.23L372.72 321.44L351.57 395.54H350.77Z" fill="#F04A25"></path><path d="M349.97 395.54L371.23 321.02L371.97 321.23L350.77 395.54H349.97Z" fill="#F04B26"></path><path d="M349.16 395.54L370.49 320.8L371.23 321.02L349.97 395.54H349.16Z" fill="#F04C26"></path><path d="M348.36 395.54L369.75 320.59L370.49 320.8L349.16 395.54H348.36Z" fill="#F04D26"></path><path d="M347.56 395.54L369.01 320.38L369.75 320.59L348.36 395.54H347.56Z" fill="#F04E27"></path><path d="M346.76 395.54L368.26 320.17L369.01 320.38L347.56 395.54H346.76Z" fill="#F04F27"></path><path d="M345.95 395.54L367.52 319.96L368.26 320.17L346.76 395.54H345.95Z" fill="#F05027"></path><path d="M345.15 395.54L366.78 319.75L367.52 319.96L345.95 395.54H345.15Z" fill="#F05127"></path><path d="M344.35 395.54L366.04 319.53L366.78 319.75L345.15 395.54H344.35Z" fill="#F05228"></path><path d="M343.55 395.54L365.3 319.32L366.04 319.53L344.35 395.54H343.55Z" fill="#F05328"></path><path d="M342.74 395.54L364.55 319.11L365.3 319.32L343.55 395.54H342.74Z" fill="#F05428"></path><path d="M341.94 395.54L363.81 318.9L364.55 319.11L342.74 395.54H341.94Z" fill="#F15628"></path><path d="M341.14 395.54L363.07 318.69L363.81 318.9L341.94 395.54H341.14Z" fill="#F15728"></path><path d="M340.34 395.54L362.33 318.47L363.07 318.69L341.14 395.54H340.34Z" fill="#F15728"></path><path d="M339.53 395.54L361.58 318.26L362.33 318.47L340.34 395.54H339.53Z" fill="#F15828"></path><path d="M338.73 395.54L360.84 318.05L361.58 318.26L339.53 395.54H338.73Z" fill="#F15928"></path><path d="M337.93 395.54L360.1 317.84L360.84 318.05L338.73 395.54H337.93Z" fill="#F15A28"></path><path d="M337.13 395.54L359.36 317.63L360.1 317.84L337.93 395.54H337.13Z" fill="#F15B28"></path><path d="M336.32 395.54L358.62 317.42L359.36 317.63L337.13 395.54H336.32Z" fill="#F15C28"></path><path d="M335.52 395.54L357.87 317.2L358.62 317.42L336.32 395.54H335.52Z" fill="#F15E28"></path><path d="M335.14 395.54L334.75 395.43L357.13 316.99L357.87 317.2L335.52 395.54H335.14Z" fill="#F15F28"></path><path d="M356.408 316.809L334.02 395.246L334.761 395.457L357.149 317.02L356.408 316.809Z" fill="#F15F29"></path><path d="M355.663 316.603L333.275 395.04L334.016 395.251L356.404 316.814L355.663 316.603Z" fill="#F16028"></path><path d="M354.928 316.387L332.54 394.824L333.281 395.035L355.669 316.598L354.928 316.387Z" fill="#F26128"></path><path d="M354.184 316.178L331.796 394.615L332.536 394.827L354.924 316.389L354.184 316.178Z" fill="#F26328"></path><path d="M353.438 315.962L331.051 394.399L331.791 394.611L354.179 316.173L353.438 315.962Z" fill="#F26428"></path><path d="M352.691 315.755L330.303 394.193L331.043 394.404L353.431 315.967L352.691 315.755Z" fill="#F26527"></path><path d="M351.956 315.539L329.568 393.977L330.308 394.188L352.696 315.75L351.956 315.539Z" fill="#F26727"></path><path d="M351.174 315.255L328.799 393.697L329.54 393.908L351.914 315.467L351.174 315.255Z" fill="#F26827"></path><path d="M350.476 315.117L328.088 393.555L328.828 393.766L351.216 315.328L350.476 315.117Z" fill="#F26927"></path><path d="M349.728 314.908L327.34 393.345L328.081 393.557L350.469 315.119L349.728 314.908Z" fill="#F26A27"></path><path d="M348.983 314.692L326.595 393.129L327.336 393.341L349.724 314.903L348.983 314.692Z" fill="#F36B27"></path><path d="M348.238 314.476L325.85 392.913L326.591 393.125L348.979 314.687L348.238 314.476Z" fill="#F36D28"></path><path d="M347.467 314.202L325.093 392.644L325.833 392.855L348.207 314.414L347.467 314.202Z" fill="#F36D28"></path><path d="M346.758 314.054L324.37 392.491L325.111 392.702L347.498 314.265L346.758 314.054Z" fill="#F36E28"></path><path d="M346.02 313.847L323.632 392.285L324.373 392.496L346.761 314.058L346.02 313.847Z" fill="#F37029"></path><path d="M345.276 313.638L322.888 392.076L323.628 392.287L346.016 313.85L345.276 313.638Z" fill="#F37129"></path><path d="M344.531 313.432L322.143 391.87L322.883 392.081L345.271 313.644L344.531 313.432Z" fill="#F37229"></path><path d="M343.796 313.206L321.408 391.644L322.148 391.855L344.536 313.418L343.796 313.206Z" fill="#F37328"></path><path d="M343.051 312.99L320.663 391.428L321.403 391.639L343.791 313.202L343.051 312.99Z" fill="#F47528"></path><path d="M342.303 312.784L319.915 391.221L320.655 391.433L343.043 312.995L342.303 312.784Z" fill="#F47628"></path><path d="M341.558 312.575L319.17 391.013L319.911 391.224L342.299 312.786L341.558 312.575Z" fill="#F47727"></path><path d="M340.823 312.369L318.435 390.806L319.176 391.018L341.563 312.58L340.823 312.369Z" fill="#F47727"></path><path d="M340.078 312.153L317.69 390.59L318.431 390.802L340.819 312.364L340.078 312.153Z" fill="#F47926"></path><path d="M339.34 311.946L316.952 390.384L317.693 390.595L340.081 312.158L339.34 311.946Z" fill="#F47A25"></path><path d="M338.595 311.73L316.207 390.168L316.948 390.379L339.336 311.942L338.595 311.73Z" fill="#F47B24"></path><path d="M337.815 311.448L315.441 389.889L316.181 390.1L338.556 311.659L337.815 311.448Z" fill="#F47D24"></path><path d="M337.105 311.295L314.718 389.733L315.458 389.944L337.846 311.507L337.105 311.295Z" fill="#F57E24"></path><path d="M336.37 311.089L313.982 389.527L314.723 389.738L337.111 311.301L336.37 311.089Z" fill="#F57F25"></path><path d="M335.623 310.883L313.235 389.321L313.975 389.532L336.363 311.094L335.623 310.883Z" fill="#F58125"></path><path d="M334.888 310.667L312.5 389.104L313.24 389.316L335.628 310.878L334.888 310.667Z" fill="#F58325"></path><path d="M334.108 310.395L311.734 388.836L312.474 389.048L334.849 310.606L334.108 310.395Z" fill="#F58425"></path><path d="M333.398 310.242L311.01 388.68L311.75 388.891L334.138 310.453L333.398 310.242Z" fill="#F68525"></path><path d="M332.653 310.026L310.265 388.464L311.005 388.675L333.393 310.237L332.653 310.026Z" fill="#F68626"></path><path d="M331.915 309.82L309.527 388.257L310.268 388.469L332.656 310.031L331.915 309.82Z" fill="#F68827"></path><path d="M331.18 309.614L308.792 388.051L309.533 388.262L331.921 309.825L331.18 309.614Z" fill="#F68929"></path><path d="M330.435 309.398L308.047 387.835L308.788 388.046L331.175 309.609L330.435 309.398Z" fill="#F68A29"></path><path d="M329.69 309.181L307.302 387.619L308.042 387.83L330.43 309.393L329.69 309.181Z" fill="#F68C2A"></path><path d="M328.943 308.972L306.555 387.41L307.295 387.621L329.683 309.184L328.943 308.972Z" fill="#F78D2A"></path><path d="M328.197 308.766L305.81 387.204L306.55 387.415L328.938 308.978L328.197 308.766Z" fill="#F78F2A"></path><path d="M327.419 308.485L305.045 386.926L305.785 387.137L328.16 308.696L327.419 308.485Z" fill="#F7902A"></path><path d="M326.718 308.334L304.33 386.772L305.07 386.983L327.458 308.545L326.718 308.334Z" fill="#F7932A"></path><path d="M325.982 308.128L303.594 386.566L304.335 386.777L326.723 308.339L325.982 308.128Z" fill="#F7942A"></path><path d="M325.235 307.922L302.847 386.359L303.587 386.57L325.975 308.133L325.235 307.922Z" fill="#F8952A"></path><path d="M324.447 307.638L302.073 386.079L302.813 386.29L325.187 307.849L324.447 307.638Z" fill="#F89729"></path><path d="M302.09 386.11L301.35 385.9L323.69 307.63H324.31L324.48 307.67L302.09 386.11Z" fill="#F89729"></path><path d="M301.35 385.9L300.61 385.69L322.88 307.63H323.69L301.35 385.9Z" fill="#F89929"></path><path d="M300.61 385.69L299.87 385.48L322.08 307.63H322.88L300.61 385.69Z" fill="#F89A2A"></path><path d="M299.87 385.48L299.13 385.27L321.28 307.63H322.08L299.87 385.48Z" fill="#F99C2A"></path><path d="M299.13 385.27L298.38 385.05L320.48 307.63H321.28L299.13 385.27Z" fill="#F99E2A"></path><path d="M298.38 385.05L297.64 384.84L319.67 307.63H320.48L298.38 385.05Z" fill="#F9A029"></path><path d="M297.64 384.84L296.9 384.63L318.87 307.63H319.67L297.64 384.84Z" fill="#F9A129"></path><path d="M296.9 384.63L296.16 384.42L318.07 307.63H318.87L296.9 384.63Z" fill="#FAA329"></path><path d="M296.16 384.42L295.41 384.21L317.27 307.63H318.07L296.16 384.42Z" fill="#FAA328"></path><path d="M295.41 384.21L294.67 384L316.46 307.63H317.27L295.41 384.21Z" fill="#FAA627"></path><path d="M294.67 384L293.93 383.78L315.66 307.63H316.46L294.67 384Z" fill="#FAA627"></path><path d="M293.93 383.78L293.19 383.57L314.86 307.63H315.66L293.93 383.78Z" fill="#FBA826"></path><path d="M293.19 383.57L292.45 383.36L314.06 307.63H314.86L293.19 383.57Z" fill="#FBAA26"></path><path d="M292.45 383.36L291.7 383.15L313.25 307.63H314.06L292.45 383.36Z" fill="#FBAB27"></path><path d="M291.7 383.15L290.96 382.94L312.45 307.63H313.25L291.7 383.15Z" fill="#FBAD28"></path><path d="M290.96 382.94L290.22 382.72L311.65 307.63H312.45L290.96 382.94Z" fill="#FBAE28"></path><path d="M290.22 382.72L289.48 382.51L310.85 307.63H311.65L290.22 382.72Z" fill="#FCB027"></path><path d="M289.48 382.51L288.73 382.3L310.04 307.63H310.85L289.48 382.51Z" fill="#FCB127"></path><path d="M288.73 382.3L287.99 382.09L309.24 307.63H310.04L288.73 382.3Z" fill="#FCB324"></path><path d="M287.99 382.09L287.57 381.97V380.75L308.44 307.63H309.24L287.99 382.09Z" fill="#FDB525"></path><path d="M287.57 377.94L307.63 307.63H308.44L287.57 380.75V377.94Z" fill="#FDB625"></path><path d="M287.57 375.12L306.83 307.63H307.63L287.57 377.94V375.12Z" fill="#FDB826"></path><path d="M287.57 372.31L306.03 307.63H306.83L287.57 375.12V372.31Z" fill="#FDB927"></path><path d="M287.57 369.5L305.23 307.63H306.03L287.57 372.31V369.5Z" fill="#FCBA28"></path><path d="M287.57 366.68L304.42 307.63H305.23L287.57 369.5V366.68Z" fill="#FEBD2A"></path><path d="M287.57 363.87L303.62 307.63H304.42L287.57 366.68V363.87Z" fill="#FEBE2A"></path><path d="M287.57 361.06L302.82 307.63H303.62L287.57 363.87V361.06Z" fill="#FDC029"></path><path d="M287.57 358.25L302.02 307.63H302.82L287.57 361.06V358.25Z" fill="#FDC22A"></path><path d="M287.57 355.43L301.21 307.63H302.02L287.57 358.25V355.43Z" fill="#FDC32B"></path><path d="M287.57 352.62L300.41 307.63H301.21L287.57 355.43V352.62Z" fill="#FFC62A"></path><path d="M287.57 349.81L299.61 307.63H300.41L287.57 352.62V349.81Z" fill="#FFC82B"></path><path d="M287.57 347L298.81 307.63H299.61L287.57 349.81V347Z" fill="#FFC92B"></path><path d="M287.57 344.18L298 307.63H298.81L287.57 347V344.18Z" fill="#FFCB2A"></path><path d="M298 307.63L287.57 344.18V307.63H298Z" fill="#FFCB2A"></path></g><g opacity="0.5"><path d="M395.7 366.75C368.29 351.68 366.74 327.58 339.03 322.01C304.34 315.04 289.7 350.59 289.7 350.59C289.7 350.59 289.68 354.09 290.59 359.18C287.81 350.41 287.87 343.17 287.87 343.17C287.87 343.17 302.52 307.62 337.2 314.59C371.89 321.56 365.58 357.56 420.28 368.54C410.84 366.64 402.77 366.21 395.7 366.75Z" fill="white"></path></g><g opacity="0.3"><path d="M293.46 366.4C298.42 371.47 305.22 375.63 314.56 377.51C343.25 383.27 354.11 358.29 387.96 355.69C395.76 361.05 405.91 365.66 420.28 368.55C365.58 357.57 356.95 395.55 322.27 388.58C306.65 385.44 298.12 375.92 293.47 366.41L293.46 366.4Z" fill="#6C184E"></path></g><path d="M377.13 360.61C345.29 354.21 329.88 378.53 309.69 374.48C289.5 370.42 290.64 343.2 290.64 343.2C290.64 343.2 300.15 317.66 320.34 321.71C340.53 325.77 345.29 354.21 377.13 360.6V360.61Z" fill="#FFD553"></path><path d="M330.72 392.21C327.88 392.21 324.9 391.92 321.72 391.29C306.59 388.25 295.45 378.92 289.5 364.31C285.08 353.45 285.1 343.58 285.1 343.16C285.1 342.81 285.17 342.46 285.31 342.13C285.47 341.75 289.28 332.64 297.57 324.33C308.72 313.16 322.61 308.86 337.74 311.89C354.05 315.16 362.19 324.64 370.81 334.66C381.17 346.71 392.92 360.37 422.44 366.3C423.75 366.56 424.65 367.71 424.66 369C424.66 369.18 424.64 369.36 424.61 369.55C424.31 371.04 422.86 372.01 421.36 371.71C391.88 365.79 375.63 374.48 361.29 382.14C351.67 387.28 342.48 392.2 330.72 392.2V392.21ZM290.63 343.74C290.7 345.86 291.18 353.89 294.68 362.39C299.98 375.29 309.45 383.19 322.81 385.87C337.22 388.76 347.17 383.44 358.69 377.28C366.34 373.19 374.25 368.96 384.4 366.43C388.9 365.31 393.52 364.61 398.31 364.35C394 362.33 390.01 360 386.29 357.35C377.87 351.34 371.89 344.39 366.63 338.26C358.3 328.57 351.1 320.2 336.66 317.3C323.3 314.62 311.5 318.25 301.61 328.1C295.09 334.59 291.53 341.81 290.64 343.74H290.63Z" fill="#09344F"></path><path d="M176.81 138.73L175.39 148.36L162.1 238.87L161.65 241.93L147.72 236.32L104.87 236.72L98.71 236.16C99.74 231.01 103.87 226.77 107.98 224.32C113.54 221 117.07 215.13 117.16 208.67C117.37 194.7 118.67 171.09 124.65 154.29C127.29 146.87 129.99 141.45 132.52 137.51C139.92 126.02 146.03 127.04 146.03 127.04L167.94 131.5L174.76 132.88L176.8 138.73H176.81Z" fill="white"></path><path d="M161.66 242.37C161.61 242.37 161.55 242.36 161.5 242.34L147.65 236.77L104.89 237.17C104.89 237.17 104.86 237.17 104.85 237.17L98.69 236.61C98.57 236.6 98.46 236.54 98.38 236.44C98.31 236.34 98.28 236.22 98.3 236.1C99.22 231.5 102.76 226.96 107.77 223.97C113.3 220.67 116.66 214.96 116.74 208.68C116.93 195.66 118.17 171.27 124.26 154.16C126.68 147.38 129.34 141.7 132.17 137.3C139.64 125.7 145.85 126.59 146.11 126.63L168.03 131.09L174.85 132.47C175 132.5 175.12 132.61 175.17 132.75L177.21 138.6C177.23 138.67 177.24 138.74 177.23 138.8L175.81 148.43L162.52 238.94L162.07 242C162.05 242.13 161.97 242.25 161.86 242.31C161.79 242.35 161.72 242.37 161.65 242.37H161.66ZM147.73 235.9C147.79 235.9 147.84 235.91 147.89 235.93L161.31 241.33L161.68 238.81L174.97 148.3L176.37 138.77L174.44 133.25L167.86 131.91L145.97 127.46C145.76 127.43 139.92 126.83 132.9 137.74C130.1 142.09 127.47 147.71 125.07 154.43C119.02 171.43 117.8 195.71 117.6 208.67C117.51 215.25 114 221.23 108.21 224.69C103.58 227.46 100.26 231.57 99.25 235.78L104.9 236.29L147.72 235.89L147.73 235.9Z" fill="#09344F"></path><path d="M176.81 138.73L175.39 148.36L162.1 238.87L161.67 241.78L161.65 241.93L153.3 238.57L147.72 236.33L108.46 236.69H108.44L104.87 236.72L98.71 236.16C99.74 231.01 103.87 226.77 107.98 224.32C113.54 221 117.07 215.13 117.16 208.67C117.37 194.7 118.67 171.09 124.65 154.29C127.29 146.87 129.99 141.45 132.52 137.51C139.92 126.02 146.03 127.04 146.03 127.04L167.94 131.5L174.76 132.88L175.21 134.17L176.8 138.73H176.81Z" fill="white"></path><g opacity="0.3"><path d="M149.54 198.99C143.37 202.53 128.97 213.22 127.28 236.52L108.47 236.69H108.45C109.86 232.32 113.3 228.74 116.73 226.56C121.97 223.24 125.29 217.37 125.37 210.91C125.56 196.94 126.79 173.33 132.43 156.53C133.75 152.58 142.05 176.09 149.53 198.99H149.54Z" fill="#09344F"></path></g><path d="M199.85 105.03C199.85 105.03 259.23 104.89 266.95 126.12C273.68 144.63 272.08 212.35 258.32 223.54C250.07 230.25 224.19 229.17 224.19 229.17L199.85 105.03Z" fill="white"></path><g opacity="0.3"><path d="M258.32 223.54C250.06 230.25 224.19 229.17 224.19 229.17L219.55 205.52C232.47 206.77 249.14 206.38 258.2 198.12C265.94 191.06 269.76 165.28 269.97 142.43C272.55 169.61 269.31 214.6 258.32 223.54Z" fill="#09344F"></path></g><path d="M235.19 232.07C227.3 232.07 221.12 230.78 220.84 230.72C219.5 230.44 218.64 229.12 218.93 227.78C219.21 226.44 220.53 225.58 221.87 225.87C222.14 225.93 249.57 231.52 260.17 218.37C261.3 216.97 263.48 213.03 265.33 202.44C266.64 194.97 267.55 185.65 267.95 175.47C268.76 155.02 267.41 135.49 264.59 126.89C262.14 119.4 251.69 115.16 243.36 112.92C233.9 110.38 224.92 109.8 224.83 109.79C223.46 109.71 222.42 108.53 222.51 107.16C222.6 105.79 223.77 104.76 225.14 104.84C225.52 104.86 234.64 105.44 244.58 108.11C258.46 111.83 266.78 117.63 269.31 125.35C272.34 134.61 273.75 154.36 272.91 175.67C272.47 186.68 270.74 213.17 264.03 221.49C261.06 225.18 256.87 227.94 251.58 229.71C247.49 231.08 242.72 231.86 237.41 232.03C236.66 232.05 235.91 232.06 235.18 232.06L235.19 232.07Z" fill="#09344F"></path><path d="M267.2 129.4C266.55 129.4 265.9 129.15 265.42 128.65C265.27 128.5 265.15 128.33 265.05 128.15C264.42 127.82 262.69 127.08 258.3 125.9C243.37 121.88 223.47 123.55 223.27 123.57C221.9 123.69 220.7 122.68 220.58 121.31C220.46 119.95 221.47 118.74 222.83 118.62C223.68 118.55 243.79 116.86 259.58 121.11C262.83 121.98 265.25 122.79 266.78 123.49C267.99 124.05 269.26 124.8 269.62 126.16C269.86 127.08 269.59 128.06 268.92 128.71C268.44 129.18 267.82 129.41 267.19 129.41L267.2 129.4Z" fill="#09344F"></path><path d="M263.22 374.49L275.98 374.46C281.75 374.44 287.05 371.27 289.78 366.19C297.89 351.07 301.7 334.02 300.79 316.89C300.48 311.14 297.04 306.02 291.82 303.56L280.28 298.12L263.22 374.49Z" fill="#3EAFD5"></path><path d="M263.22 374.92C263.09 374.92 262.97 374.86 262.88 374.76C262.8 374.66 262.77 374.52 262.8 374.4L279.86 298.03C279.89 297.9 279.97 297.79 280.09 297.74C280.21 297.68 280.34 297.68 280.46 297.74L292 303.17C297.37 305.7 300.91 310.95 301.22 316.87C302.13 334.08 298.31 351.2 290.16 366.39C287.36 371.62 281.93 374.87 275.98 374.89L263.22 374.92ZM280.58 298.74L263.76 374.06L275.98 374.03C281.6 374.01 286.75 370.93 289.4 365.99C297.47 350.94 301.26 333.97 300.36 316.92C300.06 311.32 296.72 306.35 291.63 303.96L280.57 298.75L280.58 298.74Z" fill="#09344F"></path><path d="M263.22 374.49L275.98 374.46C281.75 374.44 287.05 371.27 289.78 366.19C297.89 351.07 301.7 334.02 300.79 316.89C300.48 311.14 297.04 306.02 291.82 303.56L280.28 298.12L263.22 374.49Z" fill="#23A7D1"></path><g opacity="0.3"><path d="M292.37 354.51C289.65 359.59 284.35 362.77 278.57 362.78L265.83 362.81L263.22 374.49L275.98 374.46C281.75 374.44 287.05 371.27 289.78 366.19C294.82 356.8 298.19 346.66 299.81 336.23C297.98 342.54 295.5 348.67 292.37 354.51Z" fill="#09344F"></path></g><g opacity="0.5"><path d="M294.64 353.01C296.66 345.28 297.7 337.31 297.7 329.28C297.7 327.62 297.66 325.96 297.57 324.3C297.42 321.42 296.48 318.7 294.93 316.39C293.38 314.09 291.21 312.19 288.6 310.96L277.95 305.95L280.28 295.53L291.82 300.97C294.44 302.2 296.6 304.09 298.15 306.4C299.7 308.71 300.64 311.42 300.79 314.3C300.88 315.96 300.92 317.62 300.92 319.27C300.92 330.83 298.78 342.26 294.64 353.01Z" fill="white"></path></g><path d="M336.83 246.91C326.92 250.34 280.2 266.07 275.37 292.37L235.7 263.48C236.11 262.23 236.6 260.95 237.19 259.64C245.65 240.94 273.39 218.05 335.51 244.35C335.97 244.54 336.44 244.74 336.9 244.94C337.78 245.32 337.74 246.59 336.82 246.91H336.83Z" fill="#DC3D26"></path><g opacity="0.3"><path d="M336.83 246.91C326.92 250.34 280.2 266.07 275.37 292.37L235.7 263.48C236.11 262.23 236.6 260.95 237.19 259.64L236.24 261.36C239.75 260.56 245.22 260.06 250.01 261.61C267.63 267.28 277.16 268.93 287.92 261.49C301.4 252.17 324.71 244.21 335.5 244.34C335.96 244.53 336.43 244.73 336.89 244.93C337.77 245.31 337.73 246.58 336.81 246.9L336.83 246.91Z" fill="#09344F"></path></g><g opacity="0.5"><path d="M333.45 246.37C335.92 245.44 334.87 245.87 336.84 245.19C337.76 244.87 337.8 243.6 336.91 243.22C269.42 214.09 241.98 242.54 235.71 261.76L240.01 264.89C249.37 247.88 281.08 227.4 333.45 246.37Z" fill="white"></path></g><path d="M275.38 295.12C275.21 295.12 275.05 295.11 274.88 295.07C273.38 294.79 272.39 293.36 272.67 291.86C274.84 280.06 284.79 269 302.23 259.01C313.32 252.65 324.96 248.19 331.76 245.76C302.98 234.07 278.58 232.08 260.98 240.02C245.41 247.04 239.96 259.36 238.34 264.33C237.87 265.78 236.31 266.57 234.86 266.1C233.41 265.63 232.62 264.07 233.09 262.62C234.94 256.95 241.14 242.92 258.71 234.99C267.94 230.82 278.8 229.1 290.97 229.87C304.98 230.76 320.81 234.97 338.01 242.4C339.47 243.03 340.37 244.46 340.31 246.05C340.25 247.64 339.24 249 337.74 249.51L337.27 249.67C332.01 251.48 318.04 256.3 304.97 263.79C289 272.94 279.96 282.72 278.09 292.85C277.85 294.18 276.69 295.11 275.38 295.11V295.12Z" fill="#09344F"></path><path d="M208.16 386.8C205.66 406.86 218.16 445.34 291.66 447.54C292.62 447.57 293.13 446.39 292.43 445.72C284.91 438.42 249.57 403.22 256.38 377.37L208.15 386.8H208.16Z" fill="#D35659" stroke="#09344F" stroke-linecap="round" stroke-linejoin="round"></path><path d="M291.66 447.54C292.62 447.56 293.12 446.39 292.43 445.72C288.58 441.98 277.43 430.92 268.39 417.54C259.84 404.9 253.17 390.19 256.32 377.64C256.34 377.55 256.37 377.45 256.39 377.36L256.1 377.42L208.17 386.79C207.47 392.42 207.95 399.5 210.63 406.83C217.48 425.6 238.78 445.95 291.66 447.54Z" fill="#EB2127"></path><g opacity="0.3"><path d="M268.39 417.55C259.84 404.91 253.17 390.2 256.32 377.65C256.24 377.58 256.17 377.5 256.1 377.43L208.17 386.8C207.47 392.43 207.95 399.51 210.63 406.84C223.68 414.76 242.33 419.65 268.39 417.55Z" fill="#09344F"></path></g><path d="M291.7 450.3C291.7 450.3 291.62 450.3 291.58 450.3C273.07 449.75 257.11 446.85 244.14 441.71C232.87 437.24 223.81 431.06 217.2 423.34C212.26 417.57 208.76 411.06 206.82 403.99C204.79 396.61 204.94 390.39 205.43 386.47C205.62 384.96 206.99 383.89 208.51 384.07C210.02 384.26 211.09 385.64 210.91 387.15C210.39 391.32 209.61 406 221.39 419.75C234 434.46 256.76 443.02 287.4 444.61C273.07 430.11 247.53 400.22 253.73 376.67C254.12 375.2 255.63 374.32 257.1 374.71C258.57 375.1 259.45 376.61 259.06 378.08C256.39 388.2 260.52 401.28 271.31 416.94C278.94 428.01 288.06 437.63 294.36 443.74C295.5 444.84 295.83 446.5 295.21 447.96C294.61 449.39 293.24 450.29 291.7 450.29V450.3Z" fill="#09344F"></path><path d="M281.31 313.34C281.31 334.93 275.09 356.19 263.21 374.49C263.21 374.49 210.81 402.02 124.65 376.56C23.5101 346.68 0.600098 276.06 0.600098 276.06C0.600098 276.06 43.8101 229.91 132.35 235.12C139.81 235.55 147.59 236.36 155.69 237.59C182.91 241.71 205.14 248.98 222.88 257.09C263.07 275.46 280.27 298.13 280.27 298.13C280.96 303.2 281.31 308.28 281.31 313.35V313.34Z" fill="white" stroke="#09344F" stroke-linecap="round" stroke-linejoin="round"></path><g opacity="0.3"><path d="M124.65 376.56C210.81 402.02 263.22 374.49 263.22 374.49C268.9 365.73 273.29 356.29 276.32 346.46C281.11 330.94 282.51 314.45 280.28 298.12C280.28 298.12 271.12 286.05 250.54 272.38C257 278.36 260.02 282.34 260.02 282.34C262.25 298.67 260.85 315.16 256.06 330.68C256.03 330.78 256 330.88 255.97 330.97C250.19 349.52 234.66 363.47 215.61 367.52C191.9 372.56 152.68 374.27 104.08 357.6C90.82 353.05 77.59 336.28 75.37 319.28C70.68 283.28 86.82 251.1 80.59 249.59C70.99 247.27 47 335.64 40.48 331.22C59.34 348.14 86.4 365.25 124.64 376.55L124.65 376.56Z" fill="#09344F"></path></g><path d="M62.0101 347.85C62.3401 309.6 70.7801 271.83 86.7601 237.05C28.9501 245.79 0.600098 276.06 0.600098 276.06C0.600098 276.06 13.3801 315.46 62.0101 347.85Z" fill="#DC3D26"></path><g opacity="0.3"><path d="M62.0201 347.86C62.3501 309.6 70.7801 271.84 86.7701 237.05C85.7101 237.21 84.6601 237.37 83.6201 237.55C69.6601 261.42 60.0601 279.42 54.6501 302.58C52.4201 312.14 40.7201 315.87 33.4501 309.25C19.7701 296.78 9.42011 284.03 2.95011 273.8C1.39011 275.23 0.610107 276.06 0.610107 276.06C0.610107 276.06 13.3901 315.46 62.0201 347.85V347.86Z" fill="#09344F"></path></g><g opacity="0.5"><path d="M60.2901 346.13C60.2901 345.49 60.3001 344.85 60.3201 344.21C40.3401 328.77 27.7101 312.63 20.0901 300.44C12.9401 289 16.2501 273.89 27.5901 266.55C39.4101 258.9 57.2201 249.83 81.1201 244.27C82.3701 241.27 83.6801 238.29 85.0301 235.33C47.4201 241.01 22.2901 255.81 9.31006 265.46C2.64006 270.42 0.610061 279.5 4.54006 286.81C12.1901 301.04 28.6501 325.07 60.2801 346.14L60.2901 346.13Z" fill="white"></path></g><path d="M62.0099 350.61C61.4799 350.61 60.9399 350.45 60.4799 350.15C44.7299 339.66 31.0499 327.36 19.8199 313.58C10.3099 301.91 4.5299 291.57 1.3499 284.95C-1.4101 279.2 0.119898 272.37 5.0599 268.33C10.7499 263.68 20.3799 256.77 33.9599 250.22C49.9899 242.5 67.6099 237.15 86.3299 234.32C87.3299 234.17 88.3399 234.58 88.9499 235.39C89.5599 236.2 89.6799 237.28 89.2499 238.2C73.3299 272.86 65.0899 309.76 64.7599 347.88C64.7599 348.89 64.1899 349.82 63.2899 350.29C62.8799 350.5 62.4399 350.61 61.9999 350.61H62.0099ZM82.1499 240.6C44.0199 247.37 19.8299 263.4 8.5699 272.6C5.6099 275.02 4.6899 279.12 6.3399 282.56C12.6199 295.65 27.7099 320.41 59.3499 342.68C59.8299 325.16 62.0099 307.65 65.8299 290.54C69.6499 273.44 75.1299 256.66 82.1499 240.59V240.6Z" fill="#09344F"></path><path d="M195.66 390.12C191.31 390.12 186.92 389.99 182.49 389.73C163.45 388.61 143.73 385.07 123.87 379.21C100.28 372.24 78.95 362.47 60.47 350.16C59.66 349.62 59.2 348.7 59.24 347.74C59.41 328.54 61.62 309.3 65.81 290.55C70 271.77 76.2 253.39 84.24 235.9C84.63 235.06 85.41 234.46 86.33 234.32C108.3 231 131.77 231.18 156.09 234.85C176.56 237.94 195.92 243.09 213.64 250.14C227.84 255.79 241.02 262.67 252.82 270.59C273.01 284.15 282.08 295.95 282.46 296.45C282.75 296.83 282.93 297.27 283 297.74C284.86 311.33 284.29 325.02 281.3 338.42C278.31 351.81 273 364.45 265.53 375.98C265.27 376.38 264.92 376.7 264.5 376.92C263.95 377.21 250.71 384.06 226.67 387.79C216.69 389.34 206.31 390.11 195.66 390.11V390.12ZM64.79 346.39C82.52 358.01 102.92 367.27 125.44 373.92C169.31 386.88 204.08 385.68 225.53 382.39C245.92 379.26 258.46 373.71 261.31 372.35C268.21 361.54 273.12 349.73 275.92 337.22C278.71 324.71 279.29 311.94 277.64 299.24C275.63 296.8 266.64 286.47 249.51 275.01C231.49 262.95 200.51 247.15 155.28 240.31C132.05 236.8 109.64 236.54 88.64 239.56C73.33 273.37 65.3 309.3 64.78 346.39H64.79Z" fill="#09344F"></path><path d="M263.22 377.25C261.7 377.25 260.47 376.02 260.46 374.5C260.46 372.98 261.69 371.74 263.21 371.73L275.97 371.7C280.74 371.69 285.1 369.08 287.34 364.88C295.21 350.2 298.91 333.66 298.03 317.03C297.78 312.29 294.95 308.08 290.64 306.05L279.1 300.62C277.72 299.97 277.13 298.33 277.78 296.95C278.43 295.57 280.07 294.98 281.45 295.63L292.99 301.07C299.14 303.97 303.18 309.97 303.54 316.75C304.48 334.38 300.56 351.93 292.21 367.5C289 373.48 282.79 377.21 275.99 377.23L263.23 377.26L263.22 377.25Z" fill="#09344F"></path><path d="M261.18 354.37C285.8 359.83 314.38 345.78 314.38 345.78C314.38 345.78 314.3 345.68 314.16 345.52C311.94 342.84 292.98 320.62 269.87 315.47C247.68 310.54 226.28 322.58 222.5 324.86C222.11 325.1 221.91 325.23 221.91 325.23C221.91 325.23 236.73 348.94 261.18 354.36V354.37Z" fill="#DC3D26"></path><g opacity="0.5"><path d="M314.38 345.78C314.38 345.78 313.16 346.38 311.02 347.27C301.69 338.3 286.17 325.86 268.57 321.94C251.17 318.07 234.2 323.19 223.64 327.74C222.49 326.18 221.9 325.23 221.9 325.23C221.9 325.23 222.1 325.1 222.49 324.87C226.28 322.58 247.68 310.54 269.86 315.48C292.97 320.63 311.94 342.85 314.16 345.53C314.3 345.7 314.37 345.79 314.37 345.79L314.38 345.78Z" fill="white"></path></g><g opacity="0.3"><path d="M261.18 354.37C285.8 359.83 314.38 345.78 314.38 345.78C314.38 345.78 314.3 345.68 314.16 345.52L222.49 324.87C222.1 325.11 221.9 325.24 221.9 325.24C221.9 325.24 236.72 348.95 261.17 354.37H261.18Z" fill="#09344F"></path></g><path d="M273.44 358.41C268.9 358.41 264.61 357.96 260.59 357.07C247.32 354.13 236.88 346.02 230.45 339.75C223.53 332.99 219.73 326.96 219.58 326.7C218.78 325.42 219.16 323.74 220.42 322.92C220.67 322.76 226.68 318.9 235.82 315.71C244.31 312.75 257.21 309.83 270.48 312.78C281.13 315.15 292.13 321.14 303.16 330.58C311.32 337.56 316.34 343.79 316.55 344.05C317.07 344.7 317.27 345.56 317.09 346.37C316.91 347.18 316.37 347.88 315.61 348.25C315.31 348.4 308.11 351.91 297.76 354.78C289.05 357.19 280.91 358.4 273.45 358.4L273.44 358.41ZM225.88 326.12C227.54 328.39 230.44 332.04 234.41 335.9C240.3 341.64 249.83 349.03 261.78 351.68C280.42 355.82 301.79 348.14 309.86 344.77C307.67 342.36 304.08 338.63 299.48 334.7C292.39 328.65 281.4 320.86 269.27 318.16C257.32 315.5 245.54 318.16 237.77 320.86C232.54 322.68 228.36 324.76 225.88 326.11V326.12Z" fill="#09344F"></path><g opacity="0.3"><path d="M126.62 348.88C148.988 348.88 167.12 330.792 167.12 308.48C167.12 286.168 148.988 268.08 126.62 268.08C104.253 268.08 86.1201 286.168 86.1201 308.48C86.1201 330.792 104.253 348.88 126.62 348.88Z" fill="#09344F"></path></g><path d="M124.96 340.02C145.074 340.02 161.38 323.755 161.38 303.69C161.38 283.625 145.074 267.36 124.96 267.36C104.846 267.36 88.54 283.625 88.54 303.69C88.54 323.755 104.846 340.02 124.96 340.02Z" fill="#EB2127"></path><g opacity="0.3"><path d="M117.04 339.15C136.67 343.51 156.13 331.18 160.51 311.6C161.88 305.44 161.6 299.3 159.96 293.64C159.97 296.32 159.69 299.05 159.08 301.78C154.71 321.36 135.25 333.7 115.61 329.34C102.15 326.35 92.1 316.27 88.54 303.93C88.63 320.49 100.15 335.39 117.05 339.15H117.04Z" fill="#293856"></path><path d="M124.97 340.45C122.32 340.45 119.64 340.16 116.95 339.57C108.76 337.75 101.37 333.15 96.1501 326.61C91.0101 320.17 88.1501 312.12 88.1101 303.93C88.1101 303.71 88.2701 303.53 88.4801 303.5C88.6901 303.47 88.9001 303.6 88.9601 303.81C92.6101 316.44 102.86 326.06 115.71 328.92C135.08 333.22 154.35 321.01 158.66 301.69C159.25 299.05 159.54 296.34 159.53 293.64C159.53 293.43 159.69 293.24 159.9 293.21C160.11 293.18 160.32 293.31 160.38 293.52C162.09 299.4 162.28 305.69 160.94 311.7C157.12 328.8 141.86 340.46 124.98 340.46L124.97 340.45ZM117.14 338.73C136.51 343.03 155.78 330.82 160.09 311.5C161.17 306.64 161.23 301.59 160.27 296.74C160.13 298.46 159.88 300.18 159.5 301.86C157.36 311.44 151.61 319.62 143.3 324.89C134.99 330.16 125.13 331.88 115.52 329.75C103.38 327.05 93.5101 318.46 89.1201 306.99C90.5101 322.46 101.66 335.28 117.14 338.72V338.73Z" fill="#09344F"></path></g><path d="M125.03 342.79C122.17 342.79 119.29 342.48 116.44 341.84C106.21 339.57 97.4799 333.45 91.8699 324.62C86.2699 315.82 84.4399 305.36 86.7199 295.19C88.9999 285 95.1099 276.3 103.95 270.7C112.78 265.1 123.27 263.27 133.48 265.54C143.71 267.81 152.44 273.93 158.05 282.76C163.65 291.56 165.48 302.02 163.2 312.19C160.92 322.38 154.81 331.08 145.97 336.68C139.61 340.71 132.39 342.79 125.03 342.79ZM117.64 336.46C135.76 340.49 153.78 329.06 157.82 310.99C159.77 302.25 158.2 293.28 153.39 285.72C148.57 278.13 141.07 272.88 132.28 270.93C114.16 266.9 96.1399 278.33 92.0999 296.4C90.1499 305.14 91.7199 314.11 96.5299 321.67C101.35 329.26 108.85 334.51 117.64 336.46Z" fill="#09344F"></path><path d="M124.63 326.29C137.426 326.29 147.8 315.943 147.8 303.18C147.8 290.417 137.426 280.07 124.63 280.07C111.834 280.07 101.46 290.417 101.46 303.18C101.46 315.943 111.834 326.29 124.63 326.29Z" fill="#73CFE9" stroke="#09344F" stroke-linecap="round" stroke-linejoin="round"></path><g opacity="0.3"><path d="M119.59 325.74C132.08 328.52 144.46 320.66 147.24 308.2C147.85 305.5 147.95 302.81 147.61 300.21C147.56 300.46 147.51 300.71 147.46 300.97C144.68 313.43 132.3 321.28 119.81 318.51C110.02 316.34 103.08 308.29 101.86 298.91C99.5601 311.1 107.36 323.01 119.59 325.73V325.74Z" fill="white"></path></g><g opacity="0.3"><path d="M101.68 308.01C101.75 307.62 101.82 307.23 101.91 306.84C104.69 294.38 117.07 286.53 129.56 289.3C138.96 291.39 145.75 298.9 147.33 307.8C149.38 295.75 141.62 284.08 129.52 281.39C117.04 278.62 104.65 286.46 101.87 298.92C101.19 302 101.14 305.08 101.67 308.01H101.68Z" fill="#09344F"></path></g><path d="M124.63 329.05C122.77 329.05 120.88 328.85 118.99 328.43C112.22 326.93 106.45 322.88 102.73 317.03C99.03 311.2 97.81 304.28 99.32 297.55C102.43 283.63 116.31 274.83 130.26 277.93C137.03 279.43 142.8 283.48 146.52 289.33C150.22 295.16 151.44 302.08 149.93 308.81C147.24 320.84 136.5 329.06 124.63 329.06V329.05ZM120.19 323.04C131.18 325.48 142.11 318.55 144.55 307.6C145.73 302.3 144.78 296.86 141.87 292.28C138.95 287.68 134.4 284.49 129.07 283.31C118.08 280.87 107.15 287.8 104.71 298.75C103.53 304.05 104.48 309.49 107.39 314.07C110.31 318.67 114.86 321.86 120.19 323.04Z" fill="#09344F"></path><g opacity="0.3"><path d="M238.52 302.42C236.87 313.94 232.11 324.13 226.63 331.55C215.5 346.61 189.67 340.84 183.47 330.42C176.57 318.82 182.78 293.97 182.78 293.97C177.02 281.95 172.28 266.61 169.97 250.76C155.08 247.39 130.49 248.97 124.51 234.79C131.97 235.22 147.61 236.36 155.71 237.59C182.93 241.71 205.16 248.98 222.9 257.09C229.38 260.44 234.19 260.71 236.13 264.18C241.88 274.44 239.87 293.1 238.53 302.42H238.52Z" fill="#09344F"></path></g><path d="M314.04 81.34C312.57 93.69 307.29 103.87 298.44 116.2C271.41 153.91 236.31 155.82 236.31 155.82C235.97 173.33 247.27 202.43 227.55 230.18C227.42 230.37 227.28 230.57 227.14 230.77C222 237.83 230.77 259.55 233.6 272.25C234.53 276.46 235.09 280.74 235.24 285.04C235.33 287.35 235.3 289.66 235.15 291.97C234.6 300.77 233.04 312.36 228.84 319.44C220.02 334.29 197.43 329.34 191.71 319.73C185.34 309.04 192.12 286.01 192.12 286.01C186.81 274.92 178.71 252.63 178.71 241.48C172.49 240.69 166.99 239.92 162.11 238.88C147.71 235.82 138.69 230.42 132.43 215.06C132.15 214.36 131.88 213.63 131.64 212.89C124.59 191.26 135.96 153.48 139.73 142.08C140.43 139.95 140.88 138.73 140.88 138.73L167.95 131.5L224.11 116.49C230.61 116.13 236.43 115.33 241.63 114.03C256.27 110.37 265.95 102.78 271.68 90.15C271.68 90.15 264.87 73 267.22 66.84C269.3 61.37 274.29 61.99 276.86 64.3C280.52 67.57 282.43 75.08 282.57 75.08C282.8 75.06 286.76 57.3 296.41 57.22C303.11 57.16 309.6 62.41 312.54 69.86C313.91 73.32 314.51 77.24 314.02 81.34H314.04Z" fill="white"></path><g opacity="0.3"><path d="M314.04 81.34C312.57 93.69 307.29 103.87 298.44 116.2C271.41 153.91 236.31 155.82 236.31 155.82C235.97 173.33 247.27 202.43 227.55 230.18L218.28 234.23C233.95 218.95 230.78 180.05 227.48 158.11C226.22 149.72 230.97 144.52 239.22 142.44C252.39 139.11 274.29 131.52 289.3 115.28C307.98 95.07 312.15 76.84 312.55 69.87C313.92 73.33 314.52 77.25 314.03 81.35L314.04 81.34Z" fill="#09344F"></path></g><path d="M211.2 331.59C201.99 331.59 193 327.29 189.34 321.13C186.38 316.15 185.52 308.54 186.8 298.5C187.5 292.96 188.66 288.26 189.2 286.25C183.7 274.49 175.96 252.88 175.96 241.47C175.96 239.95 177.19 238.71 178.72 238.71C180.25 238.71 181.48 239.94 181.48 241.47C181.48 251.86 189.11 273.32 194.62 284.81C194.91 285.43 194.97 286.13 194.78 286.78C192.99 292.87 189.38 310.4 194.09 318.31C196.73 322.74 204.09 326.08 211.21 326.08H211.23C215.14 326.08 222.33 325.03 226.48 318.03C230.43 311.37 231.89 300.09 232.41 291.79C232.81 285.48 232.31 279.1 230.91 272.84C230.2 269.66 229.1 265.87 227.94 261.85C224.19 248.89 220.3 235.48 224.91 229.14C239.56 208.98 236.94 188 234.83 171.15C234.13 165.58 233.47 160.32 233.56 155.77C233.59 154.33 234.73 153.15 236.17 153.07C236.25 153.07 244.79 152.52 256.4 147.51C267.1 142.9 282.68 133.45 296.2 114.59C304.19 103.44 309.82 93.47 311.3 81.01C311.99 75.18 310.14 69.17 306.34 64.93C303.5 61.76 299.89 59.95 296.44 59.98C293.93 60 291.52 61.97 289.28 65.82C287.23 69.35 286.01 73.34 285.49 75.05C285.4 75.34 285.33 75.57 285.28 75.73C284.73 77.4 283.52 77.76 282.85 77.83C282.49 77.87 280.65 77.95 279.88 75.84C279.83 75.7 279.76 75.5 279.68 75.25C279.12 73.59 277.44 68.53 275.01 66.36C274.28 65.71 273.05 65.17 271.95 65.44C271.03 65.66 270.3 66.47 269.78 67.83C268.43 71.38 271.57 82.43 274.23 89.14C274.51 89.84 274.49 90.61 274.18 91.3C270.04 100.42 263.96 107.08 255.6 111.65C247.56 116.04 237.31 118.53 224.25 119.25C222.73 119.33 221.43 118.17 221.34 116.65C221.26 115.13 222.42 113.83 223.94 113.74C247.52 112.44 261.37 105.12 268.66 90.05C268.05 88.42 266.9 85.19 265.89 81.55C263.83 74.15 263.41 69.02 264.62 65.86C265.79 62.79 267.93 60.74 270.64 60.08C273.37 59.42 276.45 60.25 278.69 62.24C280.2 63.59 281.43 65.45 282.39 67.3C282.98 65.92 283.68 64.46 284.5 63.04C287.78 57.38 291.78 54.49 296.38 54.45C301.41 54.4 306.54 56.88 310.44 61.23C315.35 66.72 317.66 74.16 316.77 81.65C315.15 95.28 309.16 105.95 300.68 117.79C294.36 126.61 287.07 134.24 279.01 140.47C272.55 145.46 265.59 149.57 258.32 152.68C249.68 156.37 242.69 157.76 239.09 158.28C239.22 161.92 239.74 166.09 240.29 170.46C241.38 179.16 242.61 189.01 241.62 199.54C240.46 211.88 236.45 222.62 229.36 232.38C228.52 233.54 227.74 236.33 228.87 243.04C229.76 248.34 231.52 254.43 233.23 260.32C234.42 264.43 235.54 268.3 236.29 271.65C237.79 278.42 238.34 285.31 237.91 292.14C237.35 301.04 235.73 313.24 231.22 320.84C229.05 324.49 226.06 327.28 222.31 329.13C219.01 330.76 215.28 331.59 211.23 331.59H211.21H211.2Z" fill="#09344F"></path><path d="M98.73 238.36C98.55 238.36 98.37 238.34 98.19 238.31C96.7 238.01 95.73 236.56 96.02 235.07C97.04 229.95 100.59 225.54 106.58 221.97C111.41 219.09 114.34 214.11 114.42 208.65C114.61 195.5 115.86 170.83 122.07 153.38C132.89 122.99 145.14 124.11 146.5 124.33L145.59 129.77C145.59 129.77 145.63 129.78 145.71 129.79C145.62 129.79 136.46 129.41 127.26 155.23C121.31 171.93 120.11 195.92 119.93 208.73C119.82 216.12 115.89 222.84 109.4 226.71C104.81 229.45 102.13 232.63 101.43 236.16C101.17 237.47 100.02 238.38 98.73 238.38V238.36Z" fill="#09344F"></path><g opacity="0.3"><path d="M241.64 114.03C238.82 119.88 234.36 125.31 228.45 129.85C219.96 136.37 207.57 143.14 190.44 146.53C185.12 147.58 180.1 148.16 175.4 148.36C164.95 148.83 156.06 147.49 148.92 145.56C145.64 144.67 142.56 143.5 139.73 142.07C137.11 140.76 134.7 139.23 132.53 137.51C139.93 126.02 146.04 127.04 146.04 127.04L167.95 131.5L224.11 116.49C230.61 116.13 236.43 115.33 241.63 114.03H241.64Z" fill="#09344F"></path></g><g opacity="0.3"><path d="M235.24 285.04C234.6 286.2 234.18 288.55 234.01 292.36C233.4 306.71 227.5 315.38 220.45 318.86C211.76 323.15 197.74 321.08 196.2 309.77C194.74 299.07 197.77 292.27 200.47 288.52C202.24 286.06 202.43 282.82 200.9 280.21C198.91 276.82 196.49 271.77 195.39 265.78C193.64 256.32 194.07 249.67 196.97 242.75C199.4 236.96 209.08 229.28 201.09 231.11C196.03 232.27 179.21 233.94 167.38 231.11C159.01 229.11 152.62 226.63 147.58 224.06C157.28 225.9 171.71 228.13 186.96 228.76C195.34 229.1 202.44 222.57 202.74 214.21C202.87 210.72 203.06 206.91 203.36 203.16C203.71 198.73 204.4 194.01 205.14 189.77C206.37 182.72 201 176.24 193.83 176.11C182.56 175.9 166.44 174.88 152.54 171.21C145.92 169.46 139.25 173.45 137.71 180.1C135.99 187.53 134.37 197.79 134.56 209.65C134.6 212.38 135.4 214.94 136.76 217.14C134.78 215.58 133.12 214.13 131.64 212.89C131.87 213.63 132.14 214.36 132.43 215.06C140.81 235.63 154.14 238.34 178.71 241.48C178.71 252.63 186.81 274.92 192.12 286.01C192.12 286.01 185.34 309.04 191.71 319.73C197.43 329.34 220.02 334.29 228.84 319.44C233.04 312.36 234.6 300.77 235.15 291.97C235.3 289.66 235.33 287.36 235.24 285.05V285.04Z" fill="#09344F"></path></g><path d="M191.82 163.6C181.51 163.41 166.77 162.47 154.05 159.12C147.98 157.52 141.88 161.16 140.47 167.26C138.9 174.06 137.42 183.45 137.59 194.29C137.69 200.65 142.23 206.08 148.5 207.29C157.37 209 171.05 211.19 185.53 211.78C193.19 212.09 199.69 206.11 199.97 198.47C200.09 195.27 200.27 191.79 200.54 188.36C200.86 184.3 201.5 179.97 202.18 176.08C203.31 169.63 198.38 163.72 191.82 163.6Z" fill="white"></path><g opacity="0.3"><path d="M202.17 176.08C201.49 179.97 200.86 184.3 200.53 188.36C200.26 191.79 200.08 195.27 199.96 198.48C199.68 206.12 193.18 212.1 185.52 211.79C171.04 211.19 157.36 209.01 148.49 207.3C142.92 206.22 138.71 201.81 137.78 196.37C139.55 197.97 141.77 199.12 144.26 199.61C153.13 201.32 166.82 203.51 181.29 204.1C188.96 204.42 195.46 198.43 195.73 190.79C195.85 187.59 196.03 184.11 196.3 180.68C196.62 176.61 197.25 172.29 197.94 168.4C198.1 167.5 198.13 166.62 198.06 165.76C201.13 168.07 202.88 171.97 202.15 176.09L202.17 176.08Z" fill="#09344F"></path></g><path d="M186.11 214.55C185.88 214.55 185.64 214.55 185.41 214.54C170.78 213.94 156.97 211.74 147.97 210C144.32 209.3 141 207.34 138.61 204.5C136.23 201.66 134.88 198.05 134.83 194.34C134.69 185.06 135.68 175.74 137.78 166.64C138.63 162.97 140.86 159.89 144.05 157.96C147.27 156.02 151.07 155.48 154.75 156.45C167.24 159.75 181.83 160.66 191.86 160.84C195.81 160.91 199.52 162.7 202.03 165.74C204.52 168.76 205.56 172.7 204.89 176.55C204.1 181.05 203.56 185.09 203.29 188.57C203.05 191.6 202.86 194.97 202.73 198.56C202.57 202.99 200.68 207.09 197.41 210.11C194.3 212.98 190.31 214.55 186.11 214.55ZM151.16 161.5C149.67 161.5 148.21 161.9 146.91 162.68C145 163.83 143.67 165.68 143.16 167.88C141.16 176.54 140.21 185.42 140.35 194.25C140.43 199.28 144.07 203.63 149.02 204.59C157.84 206.29 171.36 208.45 185.64 209.03C188.62 209.15 191.47 208.1 193.67 206.07C195.85 204.05 197.11 201.32 197.22 198.37C197.36 194.69 197.55 191.25 197.8 188.14C198.09 184.49 198.65 180.27 199.47 175.6C199.87 173.34 199.25 171.03 197.79 169.25C196.31 167.45 194.12 166.4 191.78 166.35C181.44 166.16 166.39 165.21 153.36 161.78C152.63 161.59 151.9 161.49 151.17 161.49L151.16 161.5Z" fill="#09344F"></path><path d="M214.59 183.74C207.22 183.74 201.56 182.85 201.09 182.77C199.59 182.53 198.57 181.11 198.81 179.6C199.05 178.1 200.47 177.08 201.97 177.32C202.19 177.36 223.98 180.78 236.93 173.88C238.27 173.16 239.94 173.67 240.66 175.02C241.38 176.36 240.87 178.03 239.52 178.75C232.03 182.75 222.35 183.74 214.58 183.74H214.59Z" fill="#09344F"></path><path d="M215.1 200.34C214.48 200.34 213.85 200.34 213.22 200.32C205.37 200.15 199.71 198.94 199.47 198.89C197.98 198.57 197.04 197.1 197.36 195.61C197.68 194.12 199.15 193.18 200.64 193.5C200.92 193.56 222.17 197.99 238.01 190.24C239.38 189.57 241.03 190.14 241.7 191.51C242.37 192.88 241.8 194.53 240.43 195.2C233.44 198.62 224.93 200.35 215.1 200.35V200.34Z" fill="#09344F"></path><path d="M139.19 176.4C138.89 176.4 138.59 176.35 138.29 176.25L131.18 173.79C129.74 173.29 128.98 171.72 129.48 170.28C129.98 168.84 131.55 168.08 132.99 168.58L140.1 171.04C141.54 171.54 142.3 173.11 141.8 174.55C141.4 175.69 140.34 176.41 139.19 176.41V176.4Z" fill="#09344F"></path><path d="M137.68 190.55C135.4 190.55 131.1 188.47 128.74 187.24C127.39 186.53 126.87 184.87 127.58 183.52C128.29 182.17 129.95 181.65 131.3 182.36C133.9 183.72 136.89 184.97 137.71 185.04C139.22 185.05 140.44 186.29 140.44 187.8C140.44 189.32 139.2 190.56 137.68 190.56V190.55Z" fill="#09344F"></path><path d="M126.63 237.47C126.5 237.47 126.37 237.47 126.24 237.44C124.73 237.23 123.68 235.83 123.89 234.32C125.36 223.91 128.22 218.41 129.84 216.02C125.43 205.13 125.53 188.61 130.13 166.94C133.52 150.98 138.09 138.32 138.28 137.79C138.8 136.36 140.38 135.62 141.81 136.14C143.24 136.66 143.98 138.24 143.46 139.67C143.28 140.17 125.3 190.26 134.97 214C135.67 215.67 135.47 217.56 134.45 219.06C133.38 220.63 130.73 225.32 129.35 235.1C129.16 236.48 127.98 237.47 126.62 237.47H126.63Z" fill="#09344F"></path><path d="M215.02 237.06C215.19 236.94 215.37 236.83 215.55 236.7C215.73 236.58 215.9 236.45 216.07 236.33C216.24 236.21 216.41 236.07 216.58 235.94C216.75 235.81 216.92 235.69 217.08 235.55L217.57 235.16C217.73 235.03 217.89 234.89 218.05 234.75C218.21 234.61 218.37 234.49 218.53 234.35L218.99 233.93C220.22 232.83 221.37 231.66 222.45 230.48C222.71 230.17 222.98 229.87 223.24 229.57C223.51 229.28 223.75 228.95 224.01 228.65C224.14 228.5 224.26 228.34 224.39 228.19C224.52 228.04 224.65 227.9 224.77 227.73C225.02 227.42 225.27 227.11 225.53 226.81L225.92 226.36L226.29 225.89C226.54 225.58 226.8 225.28 227.07 224.98C227.59 224.37 228.1 223.75 228.71 223.2L228.86 223.06C230 222.03 231.76 222.12 232.8 223.26C233.59 224.13 233.72 225.37 233.23 226.36C233.03 226.78 232.79 227.17 232.55 227.57C232.43 227.77 232.3 227.96 232.18 228.15C232.05 228.34 231.93 228.54 231.78 228.72C231.5 229.09 231.21 229.45 230.91 229.8L230.46 230.33C230.31 230.5 230.13 230.66 229.97 230.83C229.64 231.16 229.31 231.48 228.97 231.8C228.63 232.11 228.26 232.4 227.9 232.7C227.54 232.99 227.17 233.28 226.78 233.54C226.4 233.81 226.01 234.07 225.62 234.33C224.04 235.32 222.37 236.17 220.62 236.79C220.18 236.95 219.75 237.09 219.3 237.21C219.08 237.27 218.86 237.34 218.63 237.39L217.95 237.54C217.73 237.59 217.5 237.63 217.27 237.66C217.04 237.7 216.81 237.73 216.58 237.75C216.35 237.77 216.12 237.8 215.89 237.81C215.66 237.82 215.43 237.83 215.18 237.82C214.96 237.82 214.78 237.63 214.79 237.4C214.79 237.27 214.86 237.15 214.96 237.08L215 237.05L215.02 237.06Z" fill="#09344F"></path><path d="M192.29 242.72L191.84 242.85C191.7 242.89 191.56 242.92 191.42 242.96C191.14 243.03 190.87 243.09 190.59 243.14C190.31 243.19 190.04 243.25 189.76 243.29L188.93 243.42C187.83 243.57 186.72 243.68 185.62 243.75C183.42 243.89 181.22 243.91 179.04 243.84C177.95 243.8 176.86 243.75 175.77 243.68C174.69 243.61 173.57 243.5 172.48 243.4H172.38L172.32 243.38H172.23L172.01 243.34L171.59 243.28C171.31 243.24 171.04 243.19 170.77 243.15C170.22 243.06 169.68 242.96 169.14 242.86C168.06 242.66 166.98 242.42 165.91 242.18C164.84 241.94 163.77 241.66 162.71 241.39C162.18 241.25 161.65 241.1 161.12 240.94C160.59 240.79 160.06 240.63 159.54 240.47C158.49 240.14 157.44 239.78 156.4 239.41C155.88 239.22 155.36 239.03 154.85 238.82L154.08 238.52L153.31 238.2C151.26 237.34 149.26 236.34 147.34 235.17C145.42 234.01 143.58 232.65 142.02 230.98C141.67 230.6 141.69 230.02 142.07 229.67C142.37 229.39 142.8 229.35 143.14 229.53L143.17 229.55C145.02 230.52 146.91 231.33 148.88 232.03C149.85 232.39 150.85 232.71 151.84 233.02C152.84 233.33 153.84 233.63 154.85 233.91C158.88 235.03 162.98 235.98 167.11 236.84C168.14 237.06 169.18 237.26 170.21 237.46L171.76 237.76L172.53 237.9L172.91 237.97L173.09 238H173.13H173.23L174.79 238.24L176.36 238.47L179.52 238.95L185.82 239.95L188.97 240.45L190.54 240.69L192.06 240.9L192.19 240.92C192.69 240.99 193.05 241.46 192.98 241.96C192.93 242.33 192.66 242.62 192.32 242.72H192.29Z" fill="#09344F"></path><g opacity="0.3"><path d="M188.95 503.26C277.089 503.26 348.54 497.758 348.54 490.97C348.54 484.182 277.089 478.68 188.95 478.68C100.811 478.68 29.3601 484.182 29.3601 490.97C29.3601 497.758 100.811 503.26 188.95 503.26Z" fill="#09344F"></path></g><path d="M125.78 110.17L117.37 111.79C110.02 113.2 102.92 108.41 101.5 101.08L97.8801 82.4C96.4601 75.07 101.27 67.99 108.61 66.57L117.02 64.95L125.77 110.17H125.78Z" fill="white"></path><path d="M230.82 43.05L239.23 41.43C246.58 40.02 253.68 44.81 255.1 52.14L258.72 70.82C260.14 78.15 255.33 85.23 247.99 86.65L239.58 88.27L230.83 43.05H230.82Z" fill="white"></path><g opacity="0.3"><path d="M123.5 98.41L125.78 110.17L117.37 111.79C110.02 113.2 102.92 108.41 101.5 101.09L99.2202 89.32C100.64 96.65 107.74 101.44 115.09 100.03L123.5 98.41Z" fill="#09344F"></path></g><g opacity="0.3"><path d="M256.44 59.05L258.72 70.82C260.14 78.15 255.33 85.23 247.99 86.65L239.58 88.27L237.3 76.51L245.71 74.89C253.05 73.48 257.86 66.39 256.44 59.06V59.05Z" fill="#09344F"></path></g><path d="M114.79 114.8C107.14 114.8 100.29 109.38 98.7901 101.61L95.1701 82.93C94.3401 78.66 95.2301 74.33 97.6801 70.73C100.12 67.13 103.82 64.7 108.09 63.87L116.5 62.25C118 61.96 119.44 62.94 119.73 64.43L128.48 109.65C128.62 110.37 128.47 111.11 128.06 111.72C127.65 112.33 127.02 112.74 126.3 112.88L117.89 114.5C116.85 114.7 115.82 114.8 114.8 114.8H114.79ZM114.84 68.19L109.13 69.29C106.3 69.83 103.85 71.45 102.24 73.83C100.63 76.21 100.04 79.07 100.58 81.89L104.2 100.57C105.33 106.39 111 110.22 116.84 109.09L122.54 107.99L114.84 68.19Z" fill="#09344F"></path><path d="M239.57 91.02C238.28 91.02 237.12 90.1 236.87 88.79L228.12 43.57C227.98 42.85 228.13 42.11 228.54 41.5C228.95 40.89 229.58 40.48 230.3 40.34L238.71 38.72C247.54 37.02 256.1 42.8 257.81 51.61L261.43 70.29C262.26 74.56 261.37 78.89 258.92 82.49C256.48 86.09 252.78 88.52 248.51 89.35L240.1 90.97C239.92 91 239.75 91.02 239.58 91.02H239.57ZM234.05 45.23L241.75 85.03L247.46 83.93C250.29 83.39 252.74 81.77 254.35 79.39C255.96 77.01 256.55 74.15 256.01 71.33L252.39 52.65C251.26 46.83 245.59 43 239.75 44.13L234.05 45.23Z" fill="#09344F"></path><path d="M174.34 138.71C164.26 138.71 154.43 136.77 144.99 132.91C137.53 129.86 130.7 125.02 125.22 118.9C119.79 112.83 115.64 105.46 113.22 97.56C108.43 81.95 105.18 58.58 116.88 35.95C120.27 29.4 124.85 23.56 130.51 18.58C135.03 14.61 140.23 11.17 145.97 8.38C155.42 3.78 163.1 2.45 163.91 2.32C164.72 2.14 172.34 0.519997 182.82 1.29C189.2 1.75 195.31 3.01 200.98 5.02C208.09 7.54 214.53 11.26 220.11 16.08C239.42 32.74 245.12 55.63 246.5 71.89C247.2 80.12 246.1 88.51 243.32 96.16C240.52 103.87 235.98 110.91 230.19 116.5C219.11 127.22 205.59 134.18 190.01 137.18C190.01 137.18 190.01 137.18 190 137.18C184.72 138.2 179.48 138.71 174.32 138.71H174.34ZM177.29 4.43C169.76 4.43 164.67 5.58 164.61 5.59C164.57 5.59 164.53 5.61 164.49 5.61C164.41 5.62 156.68 6.87 147.34 11.43C138.78 15.61 127.07 23.52 119.85 37.48C108.66 59.11 111.8 81.56 116.41 96.58C121.1 111.86 131.97 123.97 146.24 129.81C159.9 135.39 174.4 136.77 189.34 133.9C204.29 131.02 217.25 124.36 227.87 114.09C238.95 103.38 244.52 88.1 243.17 72.17C241.84 56.52 236.38 34.53 217.93 18.61C205.99 8.3 192.11 5.32 182.58 4.63C180.71 4.49 178.94 4.44 177.28 4.44L177.29 4.43Z" fill="#09344F"></path><path d="M189.68 135.55C207.67 132.09 220.41 123.66 229.05 115.3C240.52 104.21 246.23 88.25 244.85 72.04C243.46 55.67 237.76 33.51 219.03 17.35C195.24 -3.18001 164.23 3.96999 164.23 3.96999C164.23 3.96999 132.78 8.83999 118.36 36.73C107 58.68 109.99 81.38 114.81 97.08C119.58 112.64 130.83 125.32 145.61 131.36C156.74 135.91 171.71 139 189.69 135.54H189.66L189.68 135.55Z" fill="white"></path><g opacity="0.3"><path d="M244.85 72.03C246.23 88.24 240.52 104.21 229.05 115.3C220.41 123.65 207.67 132.08 189.7 135.54H189.67C171.7 139 156.74 135.9 145.61 131.36C130.83 125.33 119.59 112.64 114.81 97.08C113.29 92.12 111.95 86.46 111.19 80.35C111.57 81.82 111.98 83.24 112.4 84.61C117.17 100.16 128.42 112.85 143.2 118.89C154.33 123.43 169.29 126.53 187.26 123.07H187.29C205.26 119.6 218 111.17 226.64 102.82C238.11 91.73 243.82 75.77 242.44 59.56C242.32 58.13 242.17 56.66 241.97 55.16C243.55 61.12 244.41 66.86 244.85 72.03Z" fill="#09344F"></path></g><path d="M174.34 139.8C164.12 139.8 154.16 137.84 144.58 133.92C136.97 130.81 130 125.87 124.42 119.63C118.89 113.45 114.66 105.93 112.19 97.89C107.34 82.08 104.05 58.42 115.93 35.46C119.38 28.79 124.05 22.84 129.81 17.77C134.4 13.73 139.68 10.25 145.52 7.40999C154.97 2.80999 162.73 1.41999 163.73 1.25999C164.73 1.03999 172.44 -0.550006 182.93 0.209994C189.4 0.679994 195.61 1.94999 201.37 3.99999C208.61 6.56999 215.16 10.35 220.85 15.26C240.43 32.16 246.21 55.33 247.61 71.8C248.32 80.18 247.2 88.73 244.37 96.53C241.51 104.4 236.88 111.57 230.98 117.28C219.75 128.15 206.05 135.2 190.25 138.25C190.25 138.25 190.25 138.25 190.24 138.25C184.89 139.28 179.59 139.8 174.35 139.8H174.34ZM177.31 5.51999C169.93 5.51999 164.91 6.63999 164.85 6.64999C164.79 6.65999 164.72 6.67999 164.66 6.68999C164.59 6.69999 156.96 7.93999 147.76 12.45C135.56 18.43 126.5 27.02 120.82 38C109.8 59.31 112.91 81.45 117.46 96.28C122.05 111.25 132.7 123.11 146.67 128.82C160.13 134.32 174.43 135.68 189.15 132.85H189.16C203.9 130.01 216.68 123.44 227.14 113.32C237.98 102.83 243.44 87.87 242.11 72.27C240.8 56.82 235.42 35.12 217.24 19.44C207.88 11.36 196.25 6.74999 182.7 5.72999C180.8 5.58999 179 5.52999 177.32 5.52999L177.31 5.51999Z" fill="#09344F"></path><path d="M187.54 124.5C203.79 121.37 215.47 114.6 223.45 107.99C234.05 99.22 239.62 86.89 238.82 74.55C238.02 62.1 233.5 45.35 217.12 33.53C196.31 18.51 168.27 24.81 168.27 24.81C168.27 24.81 139.9 29.38 126.19 51.04C115.4 68.1 117.46 85.33 121.36 97.18C125.22 108.92 134.98 118.3 148.09 122.5C157.96 125.67 171.32 127.62 187.57 124.49H187.55L187.54 124.5Z" fill="#09344F"></path><path d="M171.29 127.72C163.12 127.72 155.19 126.5 147.58 124.05C140.94 121.92 134.9 118.39 130.12 113.84C125.35 109.31 121.78 103.72 119.79 97.68C115.88 85.79 113.57 67.89 124.79 50.15C132.09 38.61 143.46 31.89 151.7 28.28C160.31 24.52 167.24 23.3 167.95 23.18C168.65 23.03 175.54 21.58 184.93 21.88C193.93 22.16 206.98 24.18 218.07 32.18C235.1 44.47 239.64 61.94 240.45 74.43C240.86 80.77 239.63 87.29 236.89 93.27C234.15 99.27 229.86 104.79 224.49 109.23C214.25 117.71 201.92 123.38 187.84 126.09C187.84 126.09 187.84 126.09 187.83 126.09C182.23 127.17 176.7 127.7 171.28 127.7L171.29 127.72ZM182.44 25.13C174.41 25.13 168.69 26.38 168.63 26.4C168.6 26.4 168.56 26.41 168.53 26.42C168.46 26.43 161.47 27.59 152.94 31.33C145.14 34.75 134.41 41.1 127.57 51.91C117.03 68.57 119.22 85.44 122.91 96.66C126.66 108.05 136.02 116.9 148.58 120.94C160.71 124.84 173.72 125.49 187.25 122.89C187.25 122.89 187.25 122.89 187.26 122.89C200.77 120.28 212.59 114.85 222.4 106.73C232.56 98.32 237.95 86.63 237.18 74.66C236.42 62.87 232.15 46.4 216.16 34.86C205.77 27.36 193.44 25.46 184.93 25.18C184.08 25.15 183.25 25.14 182.44 25.14V25.13Z" fill="#09344F"></path><mask id="mask1_9_1848" style="mask-type:luminance" maskUnits="userSpaceOnUse" x="118" y="24" width="121" height="103"><path d="M187.55 125.34C203.8 122.21 215.48 115.44 223.46 108.83C234.06 100.06 239.63 87.73 238.83 75.39C238.03 62.94 233.51 46.19 217.13 34.37C196.32 19.35 168.28 25.65 168.28 25.65C168.28 25.65 139.91 30.22 126.2 51.88C115.41 68.94 117.47 86.17 121.37 98.02C125.23 109.76 134.99 119.14 148.1 123.34C157.97 126.51 171.33 128.46 187.58 125.33H187.56L187.55 125.34Z" fill="white"></path></mask><g mask="url(#mask1_9_1848)"><path d="M241.88 74.43C246.34 106.56 220.7 119.21 188.01 126.7C155.32 134.19 126.74 133.96 116.76 103.09C113.27 92.3 111.6 85.2 110.6 75.67C107.05 41.93 119.07 23.93 162.2 14.05C217.53 1.37999 234.81 23.46 241.87 74.44L241.88 74.43Z" fill="#053856"></path><path opacity="0.63" d="M235.48 47.07C244.59 82.98 228.82 86.56 228.78 80.29C228.72 71.45 223.34 62.8 223.34 62.8C229.71 53.92 211.51 34.28 211.51 34.28L180.29 93.01L126.62 53.72C126.62 53.72 118.78 79.32 128.38 84.54C128.38 84.54 127.3 94.66 131.1 102.65C133.79 108.31 118.04 111.95 110.61 75.66C111.61 85.19 113.28 92.3 116.77 103.08C126.74 133.95 155.33 134.18 188.02 126.69C220.71 119.2 246.34 106.56 241.89 74.42C240.34 63.19 238.74 56.07 235.5 47.05L235.48 47.07Z" fill="#002B42"></path><path opacity="0.28" d="M163.03 17.64C211.72 6.48999 229.75 20.3 239.46 60.6C230.28 18.06 212.33 2.57 162.21 14.05C112.09 25.53 103.45 47.11 113.7 89.4C104.9 48.9 114.34 28.79 163.03 17.64Z" fill="white"></path><path d="M214.32 59.06C214.32 59.06 223.31 69.21 219.51 83.12C216.92 92.61 181.64 98.91 181.64 98.91C181.64 98.91 147.13 108.59 140.67 101.17C131.2 90.3 134.87 77.25 134.87 77.25L214.32 59.05V59.06Z" fill="#F6E1D7"></path><path d="M217.71 81.16C215.13 90 180.35 93.27 180.35 93.27C180.35 93.27 147.61 105.46 141.44 98.63C138.79 95.7 137.12 92.09 136.08 88.45C136.94 93.32 138.07 95.67 141.68 99.66C147.85 106.5 181.25 97.2 181.25 97.2C181.25 97.2 215.37 91.03 217.95 82.19C219.46 77.03 219.46 74.42 218.11 69.66C218.76 73.39 218.82 77.37 217.71 81.16Z" fill="#DBB89B"></path><path d="M136.14 82.77L215.59 64.57C215.59 64.57 218.44 67.06 220.64 74.5C219.05 64.5 214.33 59.06 214.33 59.06L134.88 77.26C134.88 77.26 132.99 84.22 135.92 93.91C134.66 86.25 136.14 82.77 136.14 82.77Z" fill="#DBB89B"></path><path d="M160.142 94.8057C163.879 93.95 166.296 90.5854 165.541 87.2908C164.786 83.9961 161.146 82.0189 157.41 82.8746C153.674 83.7303 151.257 87.0948 152.011 90.3895C152.766 93.6842 156.406 95.6614 160.142 94.8057Z" fill="#0B2537"></path><path d="M156.717 88.0949C157.702 87.8693 158.367 87.1016 158.202 86.3802C158.037 85.6588 157.104 85.2569 156.119 85.4825C155.134 85.7082 154.469 86.4759 154.634 87.1973C154.799 87.9186 155.732 88.3205 156.717 88.0949Z" fill="white"></path><path d="M199.211 85.8711C202.947 85.0155 205.364 81.6509 204.609 78.3563C203.855 75.0616 200.214 73.0844 196.478 73.9401C192.742 74.7958 190.325 78.1603 191.079 81.455C191.834 84.7496 195.474 86.7268 199.211 85.8711Z" fill="#0B2537"></path><path d="M195.75 79.0011C196.735 78.7755 197.4 78.0078 197.235 77.2864C197.07 76.565 196.137 76.1631 195.152 76.3888C194.167 76.6144 193.502 77.3821 193.667 78.1035C193.833 78.8249 194.765 79.2268 195.75 79.0011Z" fill="white"></path><path d="M214.54 39.63L219.39 52.08C220.11 55.24 217.99 58.44 214.68 59.2L134.6 77.54C131.29 78.3 127.99 76.34 127.27 73.18L126.21 59.86C125.49 56.7 127.6 53.5 130.91 52.74L207.2 35.27C210.51 34.51 213.81 36.47 214.54 39.63Z" fill="#DC3D26"></path><path d="M126.86 62.64C126.14 59.48 128.25 56.28 131.56 55.52L207.85 38.05C211.16 37.29 214.46 39.25 215.19 42.41L219.53 53.56C219.55 53.07 219.51 52.58 219.4 52.08L214.55 39.63C213.83 36.47 210.52 34.51 207.21 35.27L130.92 52.74C127.61 53.5 125.49 56.7 126.22 59.86L127.28 73.18C127.39 73.68 127.58 74.14 127.81 74.57L126.86 62.65V62.64Z" fill="#EF4237"></path><path opacity="0.63" d="M197.77 26.62C197.77 26.62 202.59 32.47 198.06 33.5C192.46 34.78 168.25 40.33 168.22 40.33C168.22 40.33 143.99 45.88 138.38 47.16C133.85 48.2 135.65 40.84 135.65 40.84C127.38 52.5 130.92 52.74 130.92 52.74L169.06 44L207.2 35.26C207.2 35.26 210.28 33.5 197.76 26.61L197.77 26.62Z" fill="#002B42"></path><path d="M213.82 55.44L133.74 73.78C131.07 74.39 128.42 73.24 127.11 71.11L127.27 73.18C127.99 76.34 131.29 78.3 134.6 77.54L214.68 59.2C217.99 58.44 220.11 55.24 219.39 52.08L218.64 50.14C218.38 52.62 216.49 54.82 213.82 55.43V55.44Z" fill="#BE202E"></path><path d="M219.51 83.12C219.51 83.12 221.71 91.9 217.58 97.19C215.59 99.74 205.21 106.72 184.52 111.46C163.82 116.2 151.44 114.43 148.54 113C142.51 110.04 140.67 101.17 140.67 101.17C140.67 101.17 149.04 106.37 181.64 98.91C215.15 91.23 219.51 83.12 219.51 83.12Z" fill="#00A6D0"></path><path opacity="0.5" d="M182.03 100.59C213.25 93.44 218.75 84.09 219.37 82.91C219.16 81.52 219.3 82.18 219.3 82.18C219.3 82.18 214.94 90.3 181.43 97.97C148.83 105.44 140.46 100.23 140.46 100.23C140.46 100.23 140.29 99.56 140.71 100.9C141.83 101.64 151.54 107.56 182.03 100.58V100.59Z" fill="white"></path><path d="M219.22 83.64C219.45 87.04 218.84 89.91 216.57 92.81C214.58 95.36 204.2 102.34 183.51 107.08C162.81 111.82 150.43 110.05 147.53 108.62C144.21 106.99 142.41 104.64 141.14 101.47C140.82 101.29 140.67 101.18 140.67 101.18C140.67 101.18 142.51 110.05 148.54 113.01C151.44 114.44 163.82 116.21 184.52 111.47C205.22 106.73 215.59 99.75 217.58 97.2C221.72 91.91 219.51 83.13 219.51 83.13C219.51 83.13 219.43 83.31 219.22 83.65V83.64Z" fill="#007A9D"></path><path d="M215.08 60.95L135 79.29C130.72 80.27 126.47 77.71 125.52 73.58L125.48 73.32L124.42 60C123.99 55.2 126.15 51.99 130.51 50.99L206.8 33.52C210.96 32.57 214.39 34.54 216.19 38.95V38.98L221.1 51.56L221.13 51.69C222.08 55.82 219.36 59.97 215.08 60.95ZM129.05 72.9C129.61 75.03 131.89 76.33 134.21 75.8L214.29 57.46C216.61 56.93 218.1 54.77 217.68 52.6L212.89 40.3C211.2 36.2 208.5 36.82 207.62 37.02L131.33 54.49C129.6 54.89 127.67 55.84 128.01 59.7L129.06 72.9H129.05Z" fill="#0B2537"></path><path d="M182.08 100.61C182.02 100.62 182.04 100.61 181.97 100.64C181.21 100.81 172.72 102.73 163.6 103.79C150.17 105.34 142.48 105.92 139.35 102.34C129.48 91.02 133.04 77.89 133.13 77.07L136.61 77.47C136.59 77.65 133.14 89.9 141.99 100.04C146.19 104.86 168.17 100.27 181.24 97.22C194.36 94.26 216.14 88.84 217.82 82.67C221.37 69.69 212.94 60.17 212.84 60.01L215.79 58.13C216.23 58.83 225.15 69.1 221.19 83.59C219.94 88.18 212.76 91.01 199.99 95.45C191.33 98.47 182.84 100.43 182.07 100.61H182.08Z" fill="#0B2537"></path><path d="M184.92 113.21C165.02 117.77 151.56 116.49 147.75 114.62C141.02 111.31 139.02 102.01 138.92 101.55L142.43 100.81C143 103.47 145.05 109.29 149.33 111.4C151.17 112.31 162.47 114.67 184.12 109.72C205.76 104.76 214.91 97.71 216.17 96.1C219.12 92.32 218.43 86.2 217.78 83.56L221.26 82.7C221.37 83.16 223.62 92.4 219 98.31C216.38 101.66 204.82 108.66 184.92 113.22V113.21Z" fill="#0B2537"></path><path d="M188.4 128.41C170.37 132.54 154.08 132.74 141.28 128.98C125.95 124.48 119.93 118.59 115.1 103.63C105.19 72.98 104.12 59.85 113.83 42.75C117.97 35.46 124 29.23 131.74 24.24C139.76 19.08 149.87 15.07 161.82 12.34C173.76 9.59999 184.62 8.80999 194.08 9.96999C203.23 11.09 211.36 14.07 218.26 18.84C234.44 30.01 239.19 42.29 243.61 74.2C245.77 89.77 242.91 97.69 231.07 108.42C221.18 117.37 206.43 124.29 188.4 128.42V128.41ZM163.38 15.57C140.63 20.78 125.67 30.18 117.65 44.3C108.45 60.49 109.62 72.7 119.21 102.37C123.66 116.15 128.9 121.28 143.05 125.44C155.28 129.03 170.96 128.82 188.41 124.82C205.86 120.82 220.07 114.19 229.51 105.64C240.44 95.74 242.84 88.86 240.93 74.5C237.29 47.04 232.39 32.11 217.06 21.54C203.69 12.32 186.14 10.37 163.39 15.58L163.38 15.57Z" fill="#0B2537"></path><path d="M194.86 109.87L182.06 100.78L174.38 114.41L163.76 104.92L154.91 115.08L144.62 102.7L146.71 102.31L154.95 112.08L163.59 102.16L173.87 111.35L181.43 97.94L194 106.87L199.31 93.98L211.41 99.15L214.56 86.77L216.63 86.21L212.75 101.84L200.35 96.54L194.86 109.87Z" fill="#0B2537"></path><path d="M184.87 113.01L172.44 102.78L164.4 115.17L154.81 104.92L146.44 111.72L145.21 110.21L154.99 102.27L164.12 112.03L172 99.9L184.16 109.91L190.75 95.6L203.12 103.1L207.09 90.33L219.36 93.23L218.91 95.12L208.41 92.64L204.24 106.05L191.61 98.39L184.87 113.01Z" fill="#0B2537"></path><path d="M207.98 36.39L207.76 36.21L207.65 36.12C207.65 36.12 207.61 36.08 207.59 36.06L207.38 35.85L206.99 35.44L206.22 34.64C205.71 34.11 205.19 33.58 204.67 33.07C203.62 32.04 202.54 31.03 201.42 30.07C200.3 29.12 199.15 28.18 197.93 27.36C196.71 26.53 195.44 25.76 194.06 25.16C195.53 25.48 196.96 25.98 198.36 26.57C199.76 27.16 201.11 27.86 202.45 28.6C203.78 29.34 205.08 30.14 206.36 30.97C207 31.39 207.63 31.81 208.26 32.25L209.19 32.9L209.65 33.22L209.87 33.37C209.87 33.37 209.91 33.4 209.92 33.4V33.38L208 36.41L207.98 36.39Z" fill="#0B2537"></path><path d="M127.51 52.23C127.51 52.23 127.51 52.23 127.51 52.24C127.51 52.24 127.53 52.21 127.54 52.2L127.67 51.97L127.94 51.48L128.5 50.49C128.88 49.83 129.26 49.17 129.65 48.52C130.44 47.21 131.26 45.93 132.13 44.68C133.01 43.44 133.92 42.21 134.93 41.08C135.93 39.94 137 38.86 138.19 37.94C137.21 39.08 136.4 40.32 135.66 41.6C134.92 42.88 134.29 44.22 133.7 45.56C133.11 46.91 132.58 48.28 132.08 49.67C131.83 50.36 131.6 51.06 131.37 51.76L131.03 52.82L130.86 53.36L130.77 53.64C130.77 53.64 130.76 53.68 130.74 53.72L130.68 53.85L130.56 54.11L127.51 52.22V52.23Z" fill="#0B2537"></path><path d="M132.77 59.45C133.433 59.45 133.97 58.9127 133.97 58.25C133.97 57.5872 133.433 57.05 132.77 57.05C132.107 57.05 131.57 57.5872 131.57 58.25C131.57 58.9127 132.107 59.45 132.77 59.45Z" fill="#0B2537"></path><path d="M133.07 71.51C133.733 71.51 134.27 70.9727 134.27 70.31C134.27 69.6472 133.733 69.11 133.07 69.11C132.407 69.11 131.87 69.6472 131.87 70.31C131.87 70.9727 132.407 71.51 133.07 71.51Z" fill="#0B2537"></path><path d="M132.95 65.62C133.612 65.62 134.15 65.0827 134.15 64.42C134.15 63.7572 133.612 63.22 132.95 63.22C132.287 63.22 131.75 63.7572 131.75 64.42C131.75 65.0827 132.287 65.62 132.95 65.62Z" fill="#0B2537"></path><path d="M207.94 42.23C208.602 42.23 209.14 41.6927 209.14 41.03C209.14 40.3672 208.602 39.83 207.94 39.83C207.277 39.83 206.74 40.3672 206.74 41.03C206.74 41.6927 207.277 42.23 207.94 42.23Z" fill="#0B2537"></path><path d="M212.92 53.23C213.582 53.23 214.12 52.6927 214.12 52.03C214.12 51.3672 213.582 50.83 212.92 50.83C212.257 50.83 211.72 51.3672 211.72 52.03C211.72 52.6927 212.257 53.23 212.92 53.23Z" fill="#0B2537"></path><path d="M210.46 47.86C211.123 47.86 211.66 47.3227 211.66 46.66C211.66 45.9973 211.123 45.46 210.46 45.46C209.797 45.46 209.26 45.9973 209.26 46.66C209.26 47.3227 209.797 47.86 210.46 47.86Z" fill="#0B2537"></path><path d="M196.89 51.18C196.73 50.46 196.36 49.95 195.88 49.49C195.08 48.73 194.03 48.34 192.99 47.94C191.35 47.32 189.65 47.34 187.93 47.8C186.18 48.27 184.45 48.79 182.71 49.29C180.64 49.89 178.57 50.49 176.5 51.1C174.63 51.65 172.76 52.2 170.89 52.76C168.98 53.33 167.07 53.91 165.16 54.49C163.44 55.01 161.72 55.54 160 56.07C158.75 56.45 157.51 56.84 156.27 57.22C155.22 57.54 154.18 57.9 153.11 58.14C151.96 58.4 150.79 58.56 149.62 58.75C149.3 58.8 148.97 58.78 148.65 58.8C148.24 58.83 147.84 58.87 147.43 58.93C147.36 58.93 147.24 59.05 147.25 59.09C147.32 59.35 147.34 59.68 147.53 59.86C148.93 61.13 150.5 62.18 152.39 62.79C153.99 63.3 155.65 63.44 157.33 63C158.55 62.68 159.75 62.26 160.93 61.83C162.23 61.35 163.47 60.73 164.62 59.98C165.95 59.12 167.34 58.38 168.84 57.84C170.8 57.13 172.81 56.58 174.83 56.09C176.03 55.8 177.24 55.53 178.46 55.29C180.41 54.9 182.36 54.53 184.32 54.19C185.51 53.98 186.71 53.82 187.91 53.67C189.19 53.51 190.48 53.38 191.76 53.25C192.71 53.15 193.66 53.07 194.61 52.96C195.01 52.91 195.42 52.85 195.78 52.69C196.86 52.22 197.09 51.93 196.89 51.2V51.18Z" fill="white"></path><path d="M196.89 51.18C197.09 51.91 196.86 52.2 195.78 52.67C195.42 52.83 195.01 52.89 194.61 52.94C193.66 53.06 192.71 53.13 191.76 53.23C190.47 53.37 189.19 53.49 187.91 53.65C186.71 53.8 185.51 53.96 184.32 54.17C182.36 54.51 180.41 54.89 178.46 55.27C177.25 55.51 176.03 55.77 174.83 56.07C172.81 56.56 170.8 57.12 168.84 57.82C167.33 58.36 165.94 59.1 164.62 59.96C163.47 60.71 162.24 61.33 160.93 61.81C159.74 62.24 158.55 62.66 157.33 62.98C155.65 63.42 153.99 63.29 152.39 62.77C150.49 62.16 148.92 61.11 147.53 59.84C147.34 59.67 147.32 59.34 147.25 59.07C147.24 59.03 147.36 58.92 147.43 58.91C147.83 58.85 148.24 58.81 148.65 58.78C148.97 58.75 149.3 58.78 149.62 58.73C150.79 58.54 151.96 58.38 153.11 58.12C154.18 57.88 155.22 57.52 156.27 57.2C157.52 56.82 158.76 56.43 160 56.05C161.72 55.52 163.44 54.99 165.16 54.47C167.07 53.89 168.98 53.31 170.89 52.74C172.76 52.18 174.63 51.63 176.5 51.08C178.57 50.47 180.64 49.87 182.71 49.27C184.45 48.77 186.18 48.25 187.93 47.78C189.65 47.32 191.35 47.31 192.99 47.92C194.04 48.31 195.08 48.71 195.88 49.47C196.36 49.93 196.73 50.45 196.89 51.16V51.18Z" fill="white"></path></g><g opacity="0.4"><path d="M131.51 76.69C129.46 78.67 126.04 77.23 126 74.38C125.99 73.43 126.02 72.48 126.08 71.54C126.32 68.49 126.98 65.5 128 62.63C129.02 59.75 130.41 57 132.11 54.42C133.82 51.84 135.89 49.48 138.17 47.31C142.17 43.18 146.86 40.18 150.35 38.28C153.16 36.75 156.67 37.59 158.49 40.21C160.37 42.93 159.8 46.65 157.18 48.67C155.64 49.86 154.1 51.11 153.2 52.02C151.42 53.62 149.77 55.34 148.16 57.11C146.55 58.88 145.02 60.73 143.49 62.65C141.95 64.55 140.4 66.49 138.76 68.47C137.13 70.45 135.44 72.48 133.61 74.55C133.08 75.14 132.32 75.9 131.51 76.69Z" fill="white"></path><path d="M129.28 78.47C128.74 78.47 128.2 78.36 127.67 78.14C126.13 77.5 125.16 76.06 125.14 74.39C125.13 73.5 125.16 72.55 125.22 71.48C125.46 68.39 126.13 65.32 127.19 62.33C128.21 59.45 129.62 56.63 131.4 53.93C133.02 51.48 135.1 49.04 137.57 46.68C141.71 42.41 146.59 39.33 149.95 37.5C153.15 35.76 157.13 36.7 159.21 39.7C161.36 42.8 160.7 47.03 157.72 49.34C155.88 50.76 154.57 51.86 153.82 52.62C153.81 52.63 153.8 52.64 153.78 52.65C152.25 54.03 150.71 55.58 148.8 57.68C147.37 59.25 145.9 60.99 144.17 63.17C143.61 63.86 143.05 64.55 142.49 65.25C141.5 66.47 140.48 67.73 139.44 69C137.51 71.35 135.87 73.29 134.27 75.1C133.78 75.65 133.05 76.39 132.12 77.29C131.33 78.05 130.32 78.45 129.29 78.45L129.28 78.47ZM153.36 38.37C152.48 38.37 151.6 38.58 150.78 39.03C147.52 40.8 142.8 43.78 138.8 47.9L138.78 47.92C136.4 50.2 134.4 52.54 132.85 54.89C131.15 57.47 129.8 60.16 128.83 62.91C127.81 65.76 127.18 68.68 126.95 71.6C126.89 72.6 126.86 73.51 126.87 74.36C126.88 75.52 127.64 76.25 128.34 76.54C129.04 76.83 130.09 76.86 130.92 76.06C131.83 75.19 132.52 74.48 132.98 73.97C134.56 72.18 136.19 70.25 138.11 67.92C139.15 66.66 140.17 65.4 141.15 64.18C141.71 63.48 142.27 62.79 142.83 62.1C144.58 59.9 146.07 58.12 147.53 56.53C149.47 54.39 151.04 52.81 152.61 51.39C153.42 50.58 154.78 49.43 156.66 47.98C158.92 46.24 159.41 43.04 157.78 40.69C156.74 39.19 155.07 38.36 153.35 38.36L153.36 38.37Z" fill="#09344F"></path></g><g opacity="0.4"><path d="M171.78 42.51C171.78 42.51 167.07 42.53 165.34 36.74C163.6 30.95 171.44 29.1 174.61 29.24C177.78 29.38 183.31 27.97 185.21 32.51C187.11 37.05 185.52 43.62 171.79 42.52L171.78 42.51Z" fill="white"></path><path d="M174.64 43.5C173.74 43.5 172.77 43.46 171.73 43.38C171.47 43.38 170.23 43.3 168.81 42.57C167.39 41.84 165.49 40.27 164.51 36.99C163.95 35.11 164.23 33.37 165.34 31.95C167.61 29.04 172.59 28.28 174.64 28.37C175.23 28.4 175.94 28.37 176.69 28.33C179.88 28.18 184.24 27.98 186 32.17C187.13 34.87 186.94 37.59 185.46 39.62C184.13 41.46 181.18 43.49 174.65 43.49L174.64 43.5ZM174.28 30.09C172.28 30.09 168.35 30.89 166.7 33.01C165.93 33.99 165.76 35.13 166.17 36.49C167.69 41.56 171.62 41.65 171.79 41.65C171.81 41.65 171.84 41.65 171.86 41.65C179.68 42.28 182.82 40.34 184.07 38.61C185.65 36.43 184.84 33.84 184.42 32.83C183.13 29.75 179.76 29.91 176.78 30.05C175.99 30.09 175.25 30.12 174.58 30.09C174.49 30.09 174.39 30.09 174.29 30.09H174.28Z" fill="#09344F"></path></g><path d="M128.81 46.81C127.95 46.81 127.15 46.3 126.81 45.46C124.19 38.93 118.88 36.06 118.83 36.04C117.77 35.49 117.36 34.2 117.91 33.14C118.46 32.08 119.76 31.67 120.82 32.22C121.09 32.36 127.59 35.79 130.82 43.87C131.26 44.97 130.72 46.23 129.62 46.67C129.36 46.78 129.09 46.82 128.82 46.82L128.81 46.81Z" fill="#09344F"></path><path d="M212.31 30.73C211.12 30.73 210.16 29.77 210.16 28.58C210.15 19.88 214.89 14.29 215.1 14.05C215.88 13.15 217.24 13.05 218.14 13.83C219.04 14.61 219.14 15.96 218.37 16.86C218.3 16.94 214.47 21.56 214.48 28.57C214.48 29.76 213.52 30.73 212.33 30.73H212.31Z" fill="#09344F"></path><path d="M5.1101 53.71C5.1101 73.05 20.7901 88.73 40.1301 88.73C47.1701 88.73 53.7301 86.65 59.2201 83.07L76.7001 88.73L70.9401 70.37C73.6201 65.42 75.1501 59.74 75.1501 53.71C75.1501 34.37 59.4701 18.69 40.1301 18.69C22.7401 18.69 8.3001 31.37 5.5701 47.99C5.2601 49.86 5.1001 51.76 5.1001 53.71H5.1101Z" fill="white"></path><path d="M81.59 87.2L76.45 70.82C78.95 65.5 80.27 59.63 80.27 53.71C80.27 31.58 62.27 13.58 40.14 13.58C30.57 13.58 21.3 17.01 14.04 23.23C6.85 29.37 2.06 37.87 0.54 47.16L0.47 47.57C0.16 49.59 0 51.65 0 53.71C0 75.84 18 93.84 40.13 93.84C47.09 93.84 53.87 92.05 59.87 88.65L75.13 93.59L84.54 96.64L81.58 87.2H81.59ZM59.23 83.07C53.74 86.65 47.18 88.73 40.14 88.73C20.8 88.73 5.12 73.05 5.12 53.71C5.12 51.76 5.28 49.85 5.59 47.99C8.32 31.37 22.75 18.69 40.15 18.69C59.49 18.69 75.17 34.37 75.17 53.71C75.17 59.74 73.65 65.42 70.96 70.37L76.72 88.73L59.24 83.07H59.23Z" fill="#09344F"></path><path d="M32.8008 57.6015C32.6887 55.3862 32.8562 53.6283 33.3033 52.3279C33.7549 51.0069 34.4266 49.9803 35.3186 49.248C36.2306 48.5201 37.3178 47.9049 38.5803 47.4026C40.4438 46.6426 41.7393 45.9862 42.4668 45.4335C43.1942 44.8807 43.655 44.1525 43.849 43.2489C44.1179 41.9962 43.8771 40.967 43.1264 40.1613C42.3757 39.3556 41.1074 38.7611 39.3214 38.3776C37.8766 38.0674 36.5159 38.0008 35.2393 38.1779C33.9628 38.355 32.6008 38.6855 31.1533 39.1696L30.9025 30.5117C31.441 30.1547 32.3495 29.8342 33.628 29.5501C34.9311 29.2499 36.4673 29.0856 38.2367 29.0573C40.0306 29.0128 41.9108 29.2017 43.8774 29.6239C46.5464 30.1969 48.8474 31.1636 50.7805 32.5239C52.7381 33.868 54.1648 35.4848 55.0606 37.3743C55.9765 39.2682 56.203 41.2932 55.74 43.4496C55.4578 44.7639 54.9735 45.8952 54.2871 46.8435C53.6007 47.7918 52.6355 48.6694 51.3916 49.4765C50.1521 50.2631 48.5739 51.0628 46.657 51.8758C45.3613 52.4355 44.3898 53.0003 43.7426 53.5703C43.0955 54.1403 42.6303 54.889 42.3472 55.8164C42.0886 56.7277 41.8864 57.9625 41.7408 59.521L32.8008 57.6015ZM34.0103 74.5537C32.3648 74.2004 31.0446 73.3584 30.0498 72.0277C29.0751 70.7013 28.7839 69.1242 29.1763 67.2964C29.4409 66.0642 29.9389 65.0648 30.6703 64.298C31.4218 63.5356 32.312 63.007 33.3409 62.7123C34.3899 62.422 35.4662 62.3953 36.5699 62.6322C38.2355 62.9898 39.5557 63.8319 40.5304 65.1583C41.5051 66.4847 41.7941 68.072 41.3973 69.9203C41.1327 71.1525 40.6247 72.1498 39.8732 72.9123C39.1217 73.6747 38.2337 74.193 37.2092 74.4671C36.1803 74.7618 35.114 74.7907 34.0103 74.5537Z" fill="#004668"></path><path opacity="0.2" d="M5.11011 53.71C5.11011 73.05 20.7901 88.73 40.1301 88.73C47.1701 88.73 53.7301 86.65 59.2201 83.07L76.7001 88.73L57.3101 74.73C57.3101 74.73 48.1101 85.22 31.1601 80.68C7.65011 74.38 6.19011 56.05 5.58011 47.99C5.27011 49.85 5.11011 51.76 5.11011 53.71Z" fill="#010101"></path></g><defs><clipPath id="clip0_9_1848"><rect width="424.65" height="503.26" fill="white"></rect></clipPath></defs></svg>